<?xml version="1.0" standalone="no"?>
<!DOCTYPE svg PUBLIC "-//W3C//DTD SVG 1.1//EN" "http://www.w3.org/Graphics/SVG/1.1/DTD/svg11.dtd" >
<!--
2013-9-30: Created.
-->
<svg>
<metadata>
Created by iconfont
</metadata>
<defs>

<font id="iconfont" horiz-adv-x="1024" >
  <font-face
    font-family="iconfont"
    font-weight="500"
    font-stretch="normal"
    units-per-em="1024"
    ascent="896"
    descent="-128"
  />
    <missing-glyph />
    
    <glyph glyph-name="yonghuguanli01" unicode="&#983050;" d="M958.0841 38.463402l0.224113 90.87266c0 0-59.970247 11.871375-60.959825 15.892969-1.125683 4.490268-2.340397 8.840342-3.651306 13.07376 7.004818 13.020548 40.784516 41.635259 40.784516 41.635259l-67.615681 90.105181c0 0-43.845351-36.101219-54.737868-41.277102-5.074783 1.951445-10.425871 3.734044-16.069636 5.360078-5.890392 1.463328-22.161627 59.248406-22.161627 59.248406l-91.037049 0.74292c0 0-9.846656-55.966663-24.593102-59.766199-4.906954-1.438769-9.851772-3.313465-14.779194-5.558599-10.922195 5.317099-54.727634 41.970904-54.727634 41.970904l-67.615681-91.545996c0 0 33.904547-34.174334 36.177403-45.604664-1.445991-3.599991-2.801927-7.269567-4.045295-11.004635-14.582711-5.081739-55.958722-13.272281-55.958722-13.272281l0.180109-90.87266c0 0 48.149553-10.031471 57.303402-18.093077 1.906498-5.220908 4.056552-10.330276 6.409229-15.32094-11.112537-13.885242-40.780423-37.052894-40.780423-37.052894l69.771875-90.849124c0 0 54.766522 35.456536 63.796546 37.492916 4.467938-1.963725 9.023884-3.76372 13.665791-5.373381 8.2707-2.879584 14.07206-55.770188 14.07206-55.770188l90.946995-0.202615c0 0 3.055718 51.900044 9.711574 53.970192 6.615946 2.053776 13.070202 4.484128 19.332069 7.252171 7.6352-2.987031 43.56393-38.807864 43.56393-38.807864l89.913413 91.567485c0 0-33.375476 23.039739-42.584586 35.461653 2.508226 5.164626 4.797456 10.453073 6.841082 15.876596C902.562348 26.885715 958.0841 38.463402 958.0841 38.463402L958.0841 38.463402zM726.736813-30.404082c-63.345249 0-114.735745 51.354622-114.735745 114.718765 0 63.361073 51.390496 114.720811 114.735745 114.720811 63.341156 0 114.731652-51.359738 114.731652-114.720811C841.468465 20.95054 790.077968-30.404082 726.736813-30.404082L726.736813-30.404082zM434.867693 318.47784c104.345692 0 210.587648 102.630449 210.587648 211.256448 0 108.589161-101.117028 219.128743-205.505701 219.128743-104.299641 0-208.059978-113.217574-208.059978-221.777059C231.889662 418.451786 330.524048 318.47784 434.867693 318.47784L434.867693 318.47784zM480.773044 273.247706 272.07859 273.247706c-52.194848 0-130.461536-27.195386-156.538493-108.628046-26.07798-81.458243-26.07798-81.458243-52.195871-162.889881-13.081459-40.929178 178.031874-61.745273 368.110602-61.092403 63.076109 0.225127 20.141538 51.990095 20.141538 117.736495C451.595342 208.11529 579.407429 273.247706 480.773044 273.247706L480.773044 273.247706zM480.773044 273.247706"  horiz-adv-x="1024" />

    
    <glyph glyph-name="99" unicode="&#58889;" d="M981.056-91.936l-71.616 2.048 1.024 727.936 41.024 0 1.024 75.392L666.24 712.608l2.752 3.712c11.712 77.312-44.672 85.696-44.672 85.696L293.568 801.12C238.144 794.592 248.896 713.44 248.896 713.44L82.688 713.44 81.664 623.2 122.88 621.344l1.728-712.128L51.392-90.784l0.896-120.384L981.888-212 981.056-91.936zM247.872 551.392l119.232-1.408 0-104.32L247.872 446.112 247.872 551.392zM252.352 337.184l119.168-1.408 0-104.32L252.352 231.968 252.352 337.184zM377.792 30.624l-119.104 0.448L258.688 136.16l119.104-1.152L377.792 30.624zM464 551.392l119.168-1.408 0-104.32L464 446.112 464 551.392zM468.416 337.184l119.04-1.408 0-104.32-119.04 0.576L468.416 337.184zM593.92-30.432l-119.296 0.768L474.624 136.16l119.296-2.176L593.92-30.432zM684.608 551.392l119.168-1.408 0-104.32-119.168 0.448L684.608 551.392zM689.152 337.184l118.976-1.408 0-104.32-118.976 0.576L689.152 337.184zM695.36 136.16l119.232-1.152 0-104.448-119.232 0.448L695.36 136.16z"  horiz-adv-x="1024" />

    
    <glyph glyph-name="qia" unicode="&#59054;" d="M954.368 13.12 69.568 13.12c-34.88 0-63.168 27.776-63.168 61.888L6.4 440.192l1011.136 0 0-365.248C1017.536 40.896 989.248 13.12 954.368 13.12zM859.584 291.264l-126.4 0 0-123.648 126.4 0L859.584 291.264zM6.4 693.056c0 34.112 28.288 61.824 63.168 61.824l884.8 0c34.88 0 63.168-27.712 63.168-61.824l0-162.944L6.4 530.112 6.4 693.056z"  horiz-adv-x="1024" />

    
    <glyph glyph-name="baxinxian" unicode="&#59314;" d="M512 896C228.8 896 0 667.2 0 384c0-283.2 228.8-512 512-512s512 228.8 512 512C1024 667.2 795.2 896 512 896zM545.6-57.6 545.6 110.4c0 19.2-16 33.6-33.6 33.6-19.2 0-33.6-16-33.6-33.6l0-169.6c-217.6 16-392 190.4-408 408l169.6 0c19.2 0 33.6 16 33.6 33.6 0 19.2-16 33.6-33.6 33.6L70.4 416c16 217.6 190.4 392 408 408l0-169.6c0-19.2 16-33.6 33.6-33.6 19.2 0 33.6 16 33.6 33.6L545.6 825.6c217.6-16 392-190.4 408-408L785.6 417.6c-19.2 0-33.6-16-33.6-33.6 0-19.2 16-33.6 33.6-33.6l169.6 0C937.6 132.8 763.2-41.6 545.6-57.6z"  horiz-adv-x="1024" />

    
    <glyph glyph-name="kefurexian" unicode="&#58890;" d="M842.600296 214.357333c-28.672 21.048889-58.709333 40.429037-84.536889 54.651259-41.908148 23.096889-59.809185 25.78963-69.707852 25.78963-19.835259 0-37.129481-10.884741-51.313778-32.312889-9.253926-14.070519-16.308148-31.023407-23.096889-47.407407-4.551111-11.036444-11.870815-28.672-16.914963-35.422815-9.557333 2.389333-32.502519 12.591407-71.414519 40.315259-36.333037 25.865481-75.58637 59.278222-105.244444 89.467259-28.86163 30.947556-60.833185 72.097185-85.522963 110.023111-26.510222 40.694519-36.333037 64.70163-38.570667 74.638222 6.409481 5.385481 23.286519 13.008593 33.905778 17.787259 15.625481 7.092148 31.819852 14.411852 45.321481 24.120889 20.517926 14.791111 30.871704 32.805926 30.871704 53.627259 0 10.277926-2.541037 29.089185-24.651852 72.817778-13.653333 27.041185-32.199111 58.443852-52.261926 88.443259C314.481778 773.271704 291.688296 805.319111 267.908741 831.070815 241.057185 860.235852 220.577185 873.206519 201.576296 873.206519c-46.231704 0-100.693333-70.883556-116.205037-92.577185C65.384296 752.791704 18.962963 680.732444 18.962963 612.845037c0-63.450074 40.429037-145.370074 74.334815-202.94163 45.435259-77.103407 108.240593-160.123259 176.96237-233.775407l22.603852-23.703704c70.504296-71.793778 149.883259-137.481481 223.573333-184.964741 55.068444-35.498667 133.423407-77.786074 194.104889-77.786074 64.929185 0 133.878519 48.583111 160.464593 69.404444 20.783407 16.308148 88.519111 73.272889 88.519111 121.552593 0 19.911111-12.401778 41.263407-40.315259 69.404444C894.558815 174.876444 863.952593 198.731852 842.600296 214.357333zM826.785185 19.418074c-41.870222-32.805926-87.533037-54.006519-116.242963-54.006519-32.881778 0-90.908444 24.727704-155.382519 66.218667-69.252741 44.676741-144.156444 106.68563-210.488889 174.231704l-21.69363 22.755556c-65.042963 69.859556-124.397037 148.176593-167.139556 220.653037C98.341926 546.778074 92.16 596.119704 92.16 612.845037c0 37.015704 26.851556 87.684741 52.03437 122.728296 21.69363 30.264889 42.894222 50.403556 55.10637 58.671407C202.903704 791.172741 208.06163 786.356148 214.964148 778.884741 235.444148 756.622222 255.81037 728.026074 269.274074 707.887407c18.394074-27.496296 35.309037-56.054519 47.559111-80.327111 7.585185-15.094519 11.719111-25.144889 13.956741-31.364741C323.090963 591.303111 311.751111 586.183111 300.676741 581.176889 280.082963 571.847111 263.319704 563.882667 250.311111 553.035852c-21.845333-18.204444-31.668148-47.786667-25.296593-76.079407 5.575111-24.651852 22.110815-58.216296 49.152-99.669333 26.927407-41.301333 61.857185-86.281481 93.525333-120.263111 0.455111-0.455111 0.872296-0.948148 1.365333-1.403259 32.464593-33.109333 75.510519-69.632 115.067259-97.848889 39.822222-28.292741 72.097185-45.700741 95.914667-51.541333 5.613037-1.403259 11.339852-2.085926 17.028741-2.085926 22.110815 0 43.463111 10.353778 57.495704 28.823704 10.277926 13.539556 17.901037 31.023407 26.775704 52.451556 4.626963 11.264 9.40563 22.755556 13.994667 30.871704 5.95437-2.427259 15.056593-6.599111 28.254815-13.918815 23.210667-12.818963 50.479407-30.454519 76.724148-49.645037 19.26637-14.070519 46.610963-35.346963 67.849481-56.737185 7.850667-7.926519 12.667259-13.691259 15.511704-17.559704C876.240593 65.687704 856.670815 42.894222 826.785185 19.418074zM509.269333 514.920296c31.516444 5.764741 63.184593-0.83437 89.012148-18.697481 25.78963-17.787259 42.81837-44.562963 48.052148-75.434667 3.072-18.394074 18.469926-31.326815 35.991704-31.326815 2.048 0 4.171852 0.18963 6.33363 0.568889 19.911111 3.565037 33.223111 23.134815 29.733926 43.766519-8.647111 51.38963-36.864 95.952593-79.454815 125.345185-41.680593 28.747852-92.197926 39.480889-142.563556 30.264889-19.873185-3.640889-33.147259-23.286519-29.544296-43.84237C470.357333 524.932741 489.244444 511.127704 509.269333 514.920296zM819.048296 796.672 819.048296 796.672c-98.49363 67.963259-218.491259 93.37363-337.654519 71.338667-19.873185-3.678815-33.185185-23.286519-29.582222-43.880296 3.565037-20.555852 22.528-34.322963 42.477037-30.568296 100.579556 18.432 201.424593-2.654815 284.141037-59.809185 82.678519-57.002667 137.329778-143.018667 154.055111-242.157037 3.072-18.356148 18.507852-31.326815 35.991704-31.326815 2.085926 0 4.133926 0.227556 6.295704 0.568889 19.911111 3.602963 33.261037 23.172741 29.771852 43.728593C984.329481 624.298667 918.490074 728.064 819.048296 796.672zM677.69837 619.026963c48.810667-33.754074 81.237333-84.574815 91.060148-143.284148 3.147852-18.356148 18.545778-31.326815 36.02963-31.326815 2.085926 0 4.209778 0.18963 6.33363 0.606815 19.911111 3.565037 33.261037 23.134815 29.771852 43.728593-13.425778 79.265185-56.888889 147.873185-122.538667 193.194667-64.853333 44.714667-143.625481 61.477926-222.01837 46.990222-19.873185-3.640889-33.147259-23.324444-29.544296-43.880296 3.527111-20.555852 22.414222-34.474667 42.439111-30.606222C568.775111 665.334519 628.660148 652.818963 677.69837 619.026963z"  horiz-adv-x="1024" />

    
    <glyph glyph-name="yinxingqia" unicode="&#58962;" d="M0 457.142857l0-365.714286c0-120.685714 98.742857-219.428571 219.428571-219.428571l950.857143 0c120.685714 0 219.428571 98.742857 219.428571 219.428571L1389.714286 457.142857 0 457.142857zM658.285714 18.285714c-40.228571 0-73.142857 32.914286-73.142857 73.142857 0 40.228571 32.914286 73.142857 73.142857 73.142857s73.142857-32.914286 73.142857-73.142857C731.428571 51.2 698.514286 18.285714 658.285714 18.285714zM877.714286 18.285714c-40.228571 0-73.142857 32.914286-73.142857 73.142857 0 40.228571 32.914286 73.142857 73.142857 73.142857s73.142857-32.914286 73.142857-73.142857C950.857143 51.2 917.942857 18.285714 877.714286 18.285714zM1097.142857 18.285714c-40.228571 0-73.142857 32.914286-73.142857 73.142857 0 40.228571 32.914286 73.142857 73.142857 73.142857s73.142857-32.914286 73.142857-73.142857C1170.285714 51.2 1137.371429 18.285714 1097.142857 18.285714zM1389.714286 603.428571 1389.714286 676.571429c0 120.685714-98.742857 219.428571-219.428571 219.428571L219.428571 896C98.742857 896 0 797.257143 0 676.571429l0-73.142857L1389.714286 603.428571z"  horiz-adv-x="1390" />

    
    <glyph glyph-name="bianji" unicode="&#58626;" d="M343.795 219.301l217.37 61.722-155.264 154.295-62.106-216.017zM924.356 641.987l-155.269 154.305-341.585-339.46 155.264-154.3 341.59 339.456zM879.105 70.555c0-53.635-43.474-97.108-97.108-97.108h-582.725c-53.64 0-97.129 43.473-97.129 97.108v582.723c0 53.635 43.482 97.123 97.129 97.123h388.474l97.129 97.118-517.978 0c-89.392 0-161.866-72.473-161.866-161.861v-647.475c0-89.392 72.478-161.861 161.866-161.861h647.467c89.396 0 161.876 72.468 161.876 161.861l-0 517.972-97.134-97.123 0-388.478v0zM996.507 771.608l-97.034 96.436c-16.081 15.979-43.020 15.116-60.173-1.924l-46.577-46.293 155.264-154.294 46.581 46.289c17.154 17.034 18.020 43.813 1.939 59.787v0 0zM996.507 771.608z"  horiz-adv-x="1024" />

    
    <glyph glyph-name="chongzhijilu" unicode="&#58634;" d="M791.891 719.878h-83.995v56.061h-75.367c-24.163 33.405-68.845 56.061-120.432 56.061-51.585 0-96.268-22.656-120.431-56.061h-75.366v-56.061h-83.996c-61.751 0-111.804-50.108-111.804-111.928v-560.023c-0-61.819 50.052-111.927 111.804-111.927h559.394c61.751 0 111.802 50.108 111.802 111.927v560.023c0.192 61.82-49.862 111.928-111.609 111.928zM372.295 719.878h62.136c0 30.908 34.712 56.061 77.665 56.061 42.955 0 77.667-25.15 77.667-56.061h62.134v-111.928h-279.602v111.928zM847.896 47.926h-0.197c0-30.908-25.122-56.061-55.998-56.061h-559.393c-30.874 0-55.998 25.15-55.998 56.061v560.022c0 30.908 25.122 56.061 55.998 56.061h83.996v-111.928h391.597v111.928h83.997c30.874 0 55.998-25.15 55.998-56.061v-560.022zM635.232 228.78h-86.214v28.565h86.214c13.548 0 24.633 11.097 24.633 24.66s-11.084 24.66-24.633 24.66h-66.508l75.54 108.505c7.8 11.097 5.132 26.51-6.158 34.319-11.085 7.809-26.48 5.138-34.28-6.165l-82.52-118.369-82.519 118.369c-7.8 11.097-23.196 13.974-34.28 6.165s-13.959-23.222-6.158-34.319l75.54-108.505h-66.509c-13.548 0-24.633-11.097-24.633-24.66s11.085-24.66 24.633-24.66h87.856v-28.565h-87.856c-13.548 0-24.633-11.097-24.633-24.66s11.085-24.66 24.633-24.66h87.856v-50.143c0-14.796 11.906-26.715 26.685-26.715 14.779 0 26.685 11.919 26.685 26.715v50.143h86.214c13.548 0 24.633 11.097 24.633 24.66 0.001 13.562-10.673 24.66-24.221 24.66z"  horiz-adv-x="1024" />

    
    <glyph glyph-name="jingyingguanli" unicode="&#58887;" d="M895.703356-127.98976H127.714876A63.7146 63.7146 0 0 0 63.431396-64.27516V703.71332a63.7146 63.7146 0 0 0 64.28348 64.28348h63.7146V864.13758A31.8573 31.8573 0 0 0 223.855656 895.99488h63.7146a31.8573 31.8573 0 0 0 31.8573-31.8573v-96.14078h127.99808V864.13758A31.8573 31.8573 0 0 0 479.851816 895.99488h63.7146A31.8573 31.8573 0 0 0 575.423716 864.13758v-96.14078h127.99808V864.13758a31.8573 31.8573 0 0 0 32.42618 31.8573h64.28348a31.8573 31.8573 0 0 0 31.8573-31.8573v-96.14078h64.28348a63.7146 63.7146 0 0 0 64.28348-64.28348v-767.98848A63.7146 63.7146 0 0 0 895.703356-127.98976zM319.427556 415.85986a31.8573 31.8573 0 0 1-31.8573 31.8573H223.855656a31.8573 31.8573 0 0 1-31.8573-31.8573v-320.27964a31.8573 31.8573 0 0 1 31.8573-31.8573h63.7146a31.8573 31.8573 0 0 1 31.8573 31.8573zM575.423716 550.684504a31.8573 31.8573 0 0 1-31.8573 31.8573H479.851816a31.8573 31.8573 0 0 1-31.8573-31.8573v-455.104284a31.8573 31.8573 0 0 1 31.8573-31.8573h63.7146a31.8573 31.8573 0 0 1 31.8573 31.8573z m255.99616-255.99616a31.8573 31.8573 0 0 1-31.8573 31.8573h-63.7146a31.8573 31.8573 0 0 1-31.8573-31.8573v-199.108124a31.8573 31.8573 0 0 1 31.8573-31.8573h64.28348a31.8573 31.8573 0 0 1 31.8573 31.8573z"  horiz-adv-x="1024" />

    
    <glyph glyph-name="shu" unicode="&#58905;" d="M844.8 832c-6.4 0-160-44.8-307.2-83.2h-51.2C345.6 787.2 185.6 832 185.6 832 115.2 832 64 780.8 64 716.8v-582.4C64 64 128 32 179.2 19.2c0 0 153.6-44.8 300.8-83.2h57.6c153.6 38.4 300.8 83.2 300.8 83.2 70.4 19.2 115.2 64 115.2 115.2V716.8C960 780.8 908.8 832 844.8 832zM480 684.8v-678.4c-147.2 38.4-294.4 83.2-294.4 83.2-32 6.4-51.2 25.6-51.2 51.2v576c0 25.6 19.2 51.2 51.2 51.2L480 684.8z m409.6 32v-582.4c0-25.6-12.8-38.4-51.2-51.2 0 0-147.2-38.4-294.4-83.2V684.8L844.8 768c25.6-6.4 44.8-25.6 44.8-51.2z"  horiz-adv-x="1024" />

    
    <glyph glyph-name="chongdianqia" unicode="&#58975;" d="M37.952 512H0v-464c0-36.928 25.472-48 56.896-48H967.04c31.36 0 56.896 11.072 56.896 48V512H37.952z m98.112-200.32h183.04a22.272 22.272 0 1 0 0-44.544h-183.04a22.272 22.272 0 0 0 0 44.544z m334.72-178.112h-334.72a22.272 22.272 0 1 0 0 44.544h334.72a22.272 22.272 0 1 0 0-44.544z m439.424 43.2c0-23.872-16.704-43.2-37.312-43.2h-76.992c-20.672 0-37.376 19.328-37.376 43.2v2.624c0 23.872 16.704 43.2 37.376 43.2h76.992c20.608 0 37.312-19.328 37.312-43.2v-2.624zM967.168 768c31.36 0 56.832-20.736 56.832-64v-118.848H0V704c0 43.264 25.472 64 56.896 64H967.04z"  horiz-adv-x="1024" />

    
    <glyph glyph-name="nopaixu1" unicode="&#58625;" d="M512 1.346l255.134 312.503h-510.267l255.134-312.503zM512 766.654l-255.134-318.47h510.267l-255.134 318.47z"  horiz-adv-x="1024" />

    
    <glyph glyph-name="xinhao1" unicode="&#58627;" d="M0 168.421h188.632v-296.421h-188.632v296.421zM269.474 330.105h188.632v-458.105h-188.632v458.105zM565.895 518.737h161.684v-646.737h-161.684v646.737zM835.368 707.368h188.632v-835.368h-188.632v835.368zM1104.842 896h188.632v-1024h-188.632v1024z"  horiz-adv-x="1294" />

    
    <glyph glyph-name="xuanze" unicode="&#58961;" d="M512-128A512 512 0 1 0 512 896a512 512 0 0 0 0-1024zM512 822.857143a438.857143 438.857143 0 1 1 0-877.714286A438.857143 438.857143 0 0 1 512 822.857143z m-51.712-660.918857a36.571429 36.571429 0 0 0-51.712 0L253.366857 317.147429a36.571429 36.571429 0 0 0 51.785143 51.712l129.243429-129.316572 284.452571 284.452572a36.571429 36.571429 0 0 0 51.712-51.712l-310.272-310.345143z"  horiz-adv-x="1024" />

    
    <glyph glyph-name="xialajiantou" unicode="&#58891;" d="M1400.902103 201.915397L236.173437 874.379896a157.448958 157.448958 0 0 1-157.448958-272.701595l1227.235902-708.52031c29.915302-17.319385 62.979583-23.617344 94.941722-20.310916 31.804689-3.306428 65.02642 3.070255 94.862997 20.310916l1227.235902 708.52031a157.448958 157.448958 0 1 1-157.448958 272.701595L1400.902103 201.915397z"  horiz-adv-x="2834" />

    
    <glyph glyph-name="shanchu1" unicode="&#58628;" d="M762.21784064 761.1349606399999L263.1514259911112 761.1349606399999c-45.94729415111111 0-83.17831850666667-37.22833464888889-83.17831850666667-83.17490972444445l0-27.725358648888886 665.4218865777777 0 0 27.725358648888886C845.3961591466667 723.9066259911111 808.1662987377779 761.1349606399999 762.21784064 761.1349606399999M616.9276586666667 816.5845128533333l12.23840654222222-87.50608725333335L396.2032014222222 729.0784244622222l12.237242595555555 87.50608725333335L616.9276586666667 816.5845128533333M623.5888628622222 872.0340639288888l-221.80729514666666 0c-22.879335537777777 0-44.16119239111111-18.519276657777777-47.35614862222222-41.2078944711111l-16.218130204444446-116.01734428444443c-3.1681763555555555-22.66067512888889 12.969614222222221-41.18111573333333 35.848948622222224-41.18111573333333l277.25911950222223 0c22.878170453333333 0 39.017126115555556 18.519276657777777 35.82216874666667 41.2078944711111l-16.21929415111111 116.01734428444443C667.74772736 853.5147872711111 646.4670344533333 872.0340639288888 623.5888628622222 872.0340639288888M776.0805057422222 594.7863051377777L249.28759694222225 594.7863051377777c-30.487150364444446 0-53.20464270222222-24.855371093333332-50.442821404444445-55.232993279999995L244.27975907555555 40.074227484444464c2.7338763377777777-30.378786133333335 29.973675804444444-55.232993279999995 60.460826168888886-55.232993279999995l415.88926122666663 0c30.487150364444446 0 57.72578474666667 24.855371093333332 60.460826168888886 55.232993279999995l45.43381845333333 499.47908437333336C829.2851484444443 569.9309340444445 806.5676561066666 594.7863051377777 776.0805057422222 594.7863051377777M401.7815677155556 95.74033749333353l-83.17831850666667 0-27.726494151111112 388.14686321777776 110.90364757333333 0L401.78040376888896 95.74033749333353zM568.1370396444444 95.74033749333353l-110.90364757333333 0L457.2333920711111 483.8872007111112l110.90364757333333 0L568.1370396444444 95.74033749333353zM706.7660174222221 95.74033749333353l-83.17831850666667 0L623.5876989155555 483.8872007111112l110.90364757333333 0L706.7660174222221 95.74033749333353z"  horiz-adv-x="1024" />

    
    <glyph glyph-name="jifen" unicode="&#58904;" d="M710.551366-128c-141.995307 0-257.321445 53.098076-257.321446 118.449554v4.084468H443.619409c-211.911779 0-384.42046 74.96199-384.42046 166.982637V445.987799a10.811825 10.811825 0 0 0 0 2.162365V730.939465a84.572501 84.572501 0 0 0 0 11.292351v11.052088C83.225228 836.174566 243.961032 896 443.619409 896c206.145472 0 354.868137-55.500704 379.615204-141.274519v-257.801971c79.767245-15.857344 129.982168-48.052557 141.274519-89.858282v-416.615674c0.480526-65.351478-113.644298-118.449554-253.957766-118.449554z m-211.431253 118.449554c0-24.026279 82.410136-72.078836 211.431253-72.078836s208.307837 48.052557 208.307836 72.078836v123.495073a345.497888 345.497888 0 0 0-170.826842-52.137025c-12.974191 0-26.188644-1.441577-39.64336-1.441577s-31.474425 0-48.052557 2.162365a330.361333 330.361333 0 0 0-161.456593 51.416237zM105.569667 161.276396c0-49.253871 131.664008-120.131394 338.290005-120.131394h9.370248V271.316753h-12.733928C299.461736 271.316753 170.921145 305.674331 105.569667 362.376349z m393.790708 22.104177c9.610511-37.721258 90.579071-77.124355 209.268888-77.124355h27.630221a446.888785 446.888785 0 0 1 62.228062 7.688409c65.832004 12.974191 113.163773 40.364148 120.131393 69.676208V319.36931a279.906147 279.906147 0 0 0-99.228531-41.565462c-11.772877-2.642891-24.026279-5.045519-36.760206-6.967621a528.578132 528.578132 0 0 0-74.481464-5.285781 488.69451 488.69451 0 0 0-130.702957 16.818395 280.386673 280.386673 0 0 0-67.27358 28.110746l-11.052088 7.207884z m211.431253 277.984045c-125.417175 0-200.619427-37.721258-211.911778-63.429376v-2.883154a42.526513 42.526513 0 0 1 0-6.967621 45.64993 45.64993 0 0 1 11.772876-20.182074 168.183951 168.183951 0 0 1 72.078837-38.922571 395.953074 395.953074 0 0 1 82.169873-15.376819c14.896293-1.201314 29.31206-1.922102 43.247302-1.922102a480.525575 480.525575 0 0 1 72.078836 5.526044c12.974191 1.922102 24.026279 4.564993 35.799155 7.207884 55.981229 14.175504 96.105115 39.403097 101.631159 65.351478a30.032848 30.032848 0 0 1 0 7.688409c-9.850774 22.344439-48.052557 42.766776-102.59221 53.818864-11.292351 2.402628-24.026279 4.32473-36.039418 6.00657a572.786485 572.786485 0 0 1-68.474894 4.084468z m-604.981698-14.896293c2.642891-62.708588 137.91084-129.982168 334.926325-129.982168h12.733928V405.863914c15.376818 59.104646 123.735336 101.390896 257.321445 101.390896a628.287189 628.287189 0 0 0 66.793055-3.603942V655.737213c-65.591741-57.182543-193.892069-92.26091-336.367902-92.260911S170.200357 598.074144 105.569667 652.133271zM443.619409 850.109808c-186.443923 0-318.588456-53.098076-338.530268-104.27405v-9.370249a60.546222 60.546222 0 0 1 18.740498-39.162834c49.734397-52.61755 176.833412-87.93618 316.185828-87.93618 198.457062 0 336.367902 69.435946 336.367902 131.90427v6.487095C755.961032 806.622243 614.446251 850.109808 443.619409 850.109808zM710.551366-125.597372c-140.553731 0-254.918817 52.137025-254.918818 116.046926v6.487095H443.619409C233.149207-3.303613 61.84184 70.457062 61.84184 161.276396V445.987799a9.129986 9.129986 0 0 0 0 2.402628V730.939465a83.61145 83.61145 0 0 0 0 11.292351v11.052088C84.666804 834.973252 245.162346 893.597372 443.619409 893.597372c204.703895 0 352.946035-54.779916 377.212576-139.592679V494.761145c80.007508-15.617081 130.222431-48.052557 141.514782-88.416706v-415.894885c0.240263-63.909901-112.92351-116.046926-251.795401-116.046926z m-213.833881 116.046926c0-26.428907 81.208822-74.96199 213.833881-74.961989s210.710465 48.052557 210.710464 74.961989v128.300329a334.686063 334.686063 0 0 0-173.469732-54.539653c-12.974191 0-25.948381-1.441577-39.64336-1.441577s-31.474425 0-48.052558 2.162365a320.510558 320.510558 0 0 0-164.099484 53.818865zM103.167039 161.276396c0-50.214923 132.625059-123.25481 340.692633-123.25481h11.772876v235.217269h-15.136556c-144.157672 0-273.419052 36.039418-336.367902 94.663538z m393.790709 22.104177C506.568259 144.698264 587.777081 103.132802 707.908475 103.132802h27.870483a446.648522 446.648522 0 0 1 62.468325 7.688409c66.793055 13.214453 114.845612 41.325199 122.774284 72.078836V324.174566a270.055373 270.055373 0 0 0-102.111684-43.96809c-11.772877-2.642891-24.026279-5.045519-36.519944-6.727358a528.578132 528.578132 0 0 0-74.241201-5.045519 485.090568 485.090568 0 0 0-129.982168 16.818395 277.022994 277.022994 0 0 0-66.793055 27.870484q-7.928672 4.805256-14.65603 9.850774zM710.551366 463.526983c-126.378226 0-202.54153-38.682309-214.074144-64.870953v-3.363679a34.357579 34.357579 0 0 1 0-8.168935 48.052557 48.052557 0 0 1 12.493665-21.143125 170.826842 170.826842 0 0 1 72.078836-39.64336 399.316753 399.316753 0 0 1 82.650399-15.376818c14.896293-1.201314 29.552323-1.922102 43.487565-1.922103a483.889254 483.889254 0 0 1 73.520412 5.526044c12.974191 1.922102 24.026279 4.564993 36.039419 7.207884 56.702018 14.415767 96.105115 40.123885 103.553261 67.033318a32.675739 32.675739 0 0 1 0 8.168935v1.681839c-9.370249 22.344439-48.052557 43.247302-103.553261 54.539653-11.292351 2.402628-24.026279 4.32473-36.039419 6.006569a578.793055 578.793055 0 0 1-70.156733 4.324731z m-607.384327-17.298921c2.642891-63.909901 138.871891-132.384796 336.367902-132.384796h15.136556V405.863914c15.136556 57.663069 122.293759 98.988268 254.918817 98.988268a624.683247 624.683247 0 0 0 69.195683-3.844205V661.022994c-63.909901-58.864383-192.21023-96.105115-339.491318-96.105115s-274.380103 35.799155-336.367903 91.780385zM443.619409 852.512435C256.214435 852.512435 123.10885 799.894885 102.926776 746.796809v-10.571563a62.708588 62.708588 0 0 1 19.461286-40.844673C172.843247 642.522759 299.461736 607.684655 440.495992 607.684655 640.154369 607.684655 779.987311 677.601126 779.987311 741.270765a2.402628 2.402628 0 0 0 0 1.201314v5.045518c-24.026279 60.546222-164.339747 104.994838-336.367902 104.994838zM710.551366-125.597372c-140.553731 0-254.918817 52.137025-254.918818 116.046926v6.487095H443.619409C233.149207-3.303613 61.84184 70.457062 61.84184 161.276396V730.939465a83.851713 83.851713 0 0 0 0 11.292351v11.052088C84.666804 834.973252 245.162346 893.597372 443.619409 893.597372c204.703895 0 352.946035-54.779916 377.212576-139.592679V494.761145c80.007508-15.617081 130.222431-48.052557 141.514782-88.416706v-415.894885c0.240263-63.909901-112.92351-116.046926-251.795401-116.046926z m-213.833881 116.046926c0-26.428907 81.208822-74.96199 213.833881-74.961989s210.710465 48.052557 210.710464 74.961989v128.300329a334.686063 334.686063 0 0 0-173.469732-54.539653c-12.974191 0-25.948381-1.441577-39.64336-1.441577s-31.474425 0-48.052558 2.162365a320.510558 320.510558 0 0 0-164.099484 53.818865zM103.167039 161.276396c0-50.214923 132.625059-123.25481 340.692633-123.25481h11.772876v235.217269h-15.136556c-144.157672 0-273.419052 36.039418-336.367902 94.663538z m393.790709 22.104177C506.568259 144.698264 587.777081 103.132802 707.908475 103.132802h27.870483a446.648522 446.648522 0 0 1 62.468325 7.688409c66.793055 13.214453 114.845612 41.325199 122.774284 72.078836V324.174566a270.055373 270.055373 0 0 0-102.111684-43.96809c-11.772877-2.642891-24.026279-5.045519-36.519944-6.727358a528.578132 528.578132 0 0 0-74.241201-5.045519 485.090568 485.090568 0 0 0-129.982168 16.818395 277.022994 277.022994 0 0 0-66.793055 27.870484q-7.928672 4.805256-14.65603 9.850774zM710.551366 463.526983c-126.378226 0-202.54153-38.682309-214.074144-64.870953v-3.363679a34.597841 34.597841 0 0 1 0-8.168935 48.052557 48.052557 0 0 1 12.493665-21.143125 170.826842 170.826842 0 0 1 72.078836-39.64336 399.316753 399.316753 0 0 1 82.650399-15.376818c14.896293-1.201314 29.552323-1.922102 43.487565-1.922103a483.889254 483.889254 0 0 1 73.520412 5.526044c12.733928 1.922102 24.026279 4.32473 36.039419 7.207884 56.702018 14.415767 96.105115 40.123885 103.553261 67.033318a32.675739 32.675739 0 0 1 0 8.168935v1.681839c-9.370249 22.344439-48.052557 43.247302-103.553261 54.539653-11.292351 2.402628-24.026279 4.32473-36.039419 6.006569a581.435946 581.435946 0 0 1-70.156733 4.324731z m-607.384327-17.298921c2.642891-63.909901 138.871891-132.384796 336.367902-132.384796h15.136556V405.863914c15.136556 57.663069 122.293759 98.988268 254.918817 98.988268a624.683247 624.683247 0 0 0 69.195683-3.844205V661.022994c-63.909901-58.864383-192.21023-96.105115-339.491318-96.105115s-274.380103 35.799155-336.367903 91.780385zM443.619409 852.512435C256.214435 852.512435 123.10885 799.894885 102.926776 746.796809v-10.571563a62.708588 62.708588 0 0 1 19.461286-40.844673C172.843247 642.522759 299.461736 607.684655 440.495992 607.684655 640.154369 607.684655 779.987311 677.601126 779.987311 741.270765v6.246832c-24.026279 60.546222-164.339747 104.994838-336.367902 104.994838zM818.66962 492.839043V753.283904C793.201764 841.940873 631.745171 891.194744 443.619409 891.194744S87.790221 837.37588 64.244467 753.283904v-11.052088a82.890662 82.890662 0 0 1 0-11.292351v-569.663069c0-89.61802 172.508681-162.177382 379.374942-162.177381h14.175504v-8.889724c0-62.708588 114.845612-113.644298 252.51619-113.644298s249.873299 51.175974 249.873299 113.884561V405.863914c-12.013139 43.007039-67.033318 72.799625-141.514782 86.975129z m-240.262788-205.664946A480.525575 480.525575 0 0 1 707.908475 271.316753a523.772877 523.772877 0 0 1 73.760676 5.045518c12.733928 1.922102 24.026279 4.084467 36.279681 6.727358A259.964336 259.964336 0 0 1 924.144984 329.220084v-146.079774c-7.688409-29.552323-53.818864-59.104646-124.696387-72.078837a448.330361 448.330361 0 0 0-62.94885-7.688409h-27.870484c-120.131394 0-203.742844 40.844674-214.074143 81.929611v144.157672a168.183951 168.183951 0 0 1 18.259972-12.733927 273.659315 273.659315 0 0 1 66.072266-29.552323z m-120.131393 118.449554v-93.702487h-17.539184c-201.340216 0-336.367902 69.195683-339.731581 134.787424v216.236508c61.026748-57.663069 192.21023-94.663538 339.731581-94.663538 153.287658 0 282.068512 39.883623 341.893947 98.507743v-168.183951a621.800094 621.800094 0 0 1-72.078836 4.084467c-124.936649-0.240263-236.899108-39.162834-252.51619-96.825903zM100.764411 747.517597C121.186748 799.894885 255.013121 854.915063 443.619409 854.915063c174.430784 0 314.984514-44.929141 338.530267-107.157203v-6.487095c0-64.63069-140.313468-136.709526-341.413421-136.709526-140.553731 0-268.854059 36.039418-319.549507 89.377757a64.63069 64.63069 0 0 0-20.182074 42.28625v4.084468zM443.619409 35.378695c-209.509151 0-343.09526 74.481464-343.095261 125.657438v212.152042c59.825434-58.383857 187.645237-97.786954 339.731582-97.786955h17.539183v-240.262787z m480.525575-44.929141c0-30.753637-85.053027-77.364618-213.113093-77.364617s-216.236509 46.610981-216.236509 77.364617v133.105584A312.341624 312.341624 0 0 1 659.855917 67.333646c15.376818-1.441577 30.9939-2.162365 48.052558-2.162365s26.669169 0 39.403097 1.441577A322.192398 322.192398 0 0 1 924.144984 123.795401z m0 397.875176c-6.967621-26.909432-45.409667-53.578602-105.235101-68.715157-11.292351-2.883153-24.026279-5.285781-36.279681-7.207884a482.207414 482.207414 0 0 0-73.760676-5.526044c-14.896293 0-29.552323 0-43.727827 1.922103a404.602534 404.602534 0 0 0-83.130925 15.376818 173.22947 173.22947 0 0 0-74.241201 40.364148 49.734397 49.734397 0 0 0-12.974191 22.344439 33.156265 33.156265 0 0 0 0 9.610512v3.603942c12.733928 28.831534 91.299859 66.312529 216.236509 66.312529a581.916471 581.916471 0 0 0 72.078836-4.32473q19.461286-2.402628 36.279681-6.00657c59.104646-12.493665 96.105115-34.357579 105.235101-55.981229l1.201314-2.642891a34.838104 34.838104 0 0 0-1.681839-9.129986z"  horiz-adv-x="1024" />

    
    <glyph glyph-name="bangdingshouji" unicode="&#58884;" d="M756.655633-128H267.344367a150.620395 150.620395 0 0 0-150.347037 150.347037V745.652963A150.620395 150.620395 0 0 0 267.344367 896h489.311266a150.620395 150.620395 0 0 0 150.347037-150.347037v-723.305926a150.620395 150.620395 0 0 0-150.347037-150.347037zM267.344367 813.992525A68.339562 68.339562 0 0 1 199.004805 745.652963v-723.305926a68.339562 68.339562 0 0 1 68.339562-68.339562h489.311266a68.339562 68.339562 0 0 1 68.339562 68.339562V745.652963A68.339562 68.339562 0 0 1 756.655633 813.992525zM524.027763 390.013881a123.831287 123.831287 0 0 0-62.052323 16.674854 41.003737 41.003737 0 1 0 41.003738 71.073144 42.643887 42.643887 0 0 1 58.225307 15.581421l80.640683 139.412706a43.190603 43.190603 0 0 1-75.173518 42.643887l-31.982915-54.67165a41.003737 41.003737 0 1 0-71.073145 41.003738l31.982915 54.67165a124.651361 124.651361 0 1 0 215.953017-124.651362l-79.273893-139.412707a123.831287 123.831287 0 0 0-75.720234-58.225307 126.018153 126.018153 0 0 0-32.529632-4.100374zM418.784837 207.68393a124.651361 124.651361 0 0 0-107.70315 186.977042l80.640684 139.686065a124.651361 124.651361 0 0 0 170.302189 45.650827 41.003737 41.003737 0 1 0-41.003738-71.073144 42.643887 42.643887 0 0 1-58.225307-15.58142L382.154832 353.657234a43.190603 43.190603 0 0 1 75.173518-42.643886l31.982915 54.671649a41.003737 41.003737 0 1 0 71.073145-41.003737l-31.982915-54.67165a124.651361 124.651361 0 0 0-109.616658-62.32568zM865.998932 94.513615H158.001068a41.003737 41.003737 0 1 0 0 82.007474h707.997864a41.003737 41.003737 0 0 0 0-82.007474zM512 26.447411m-49.751201 0a49.751201 49.751201 0 1 1 99.502402 0 49.751201 49.751201 0 1 1-99.502402 0Z"  horiz-adv-x="1024" />

    
    <glyph glyph-name="qian" unicode="&#59038;" d="M0-128h1305.6V674.133333H0V-128zM93.866667 580.266667h1122.133333v-618.666667H93.866667V580.266667zM1506.133333 896v-810.666667H1365.333333v93.866667h51.2V802.133333H294.4V725.333333H204.8V896h1301.333333zM742.4 392.533333h98.133333v-76.8h-149.333333v-51.2h149.333333v-76.8h-149.333333v-119.466666h-76.8v119.466666h-149.333333v76.8h149.333333v51.2h-149.333333v76.8h93.866666l-68.266666 68.266667L550.4 512l102.4-106.666667L750.933333 512l55.466667-55.466667-64-64z"  horiz-adv-x="1506" />

    
    <glyph glyph-name="kuaisuchongzhi" unicode="&#58978;" d="M203.5 247.333c-13.347 0-24.167-10.67-24.167-23.833 0-13.163 10.82-23.833 24.167-23.833h145c13.347 0 24.167 10.67 24.167 23.833 0 13.163-10.82 23.833-24.167 23.833h-145z m0 47.667h145c40.04 0 72.5-32.012 72.5-71.5S388.54 152 348.5 152h-145c-40.04 0-72.5 32.012-72.5 71.5s32.46 71.5 72.5 71.5zM131 445l290 0 0-49-290 0 0 49ZM474 445l143 0 0-49-143 0 0 49ZM43 536v49h868v-49zM950 418.406V681.375C950 734.187 909.392 777 859.3 777H133.7C83.608 777 43 734.187 43 681.375v-573.75C43 54.813 83.608 12 133.7 12h566.875v47.813H133.7c-23.165 0-42.963 20.873-42.963 47.812V681.375c0 26.939 19.798 47.813 42.963 47.813h725.6c23.165 0 42.963-20.874 42.963-47.813v-262.969H950z m0 262.969C950 734.187 909.392 777 859.3 777H133.7C83.608 777 43 734.187 43 681.375v-573.75C43 54.813 83.608 12 133.7 12h566.875v47.813H133.7c-23.165 0-42.963 20.873-42.963 47.812V681.375c0 26.939 19.798 47.813 42.963 47.813h725.6c23.165 0 42.963-20.874 42.963-47.813v-262.969H950V681.375zM679.491 35.906a23.906 22.732 90 1 1 45.464 0 23.906 22.732 90 1 1-45.464 0ZM902.264 418.406a23.906 23.868 90 1 1 47.736 0 23.906 23.868 90 1 1-47.736 0ZM827.437 201.635H928.08c1.153 0 2.278-0.117 3.366-0.34l14.822 0.29c8.748 0.17 15.978-6.782 16.15-15.53a15.843 15.843 0 0 0-3.748-10.545L817.068 8.216c-8.09-9.557-22.394-10.747-31.95-2.658l-0.227 0.195c-9.691 8.424-11.02 22.99-3.011 33.027l91.796 115.066H758.022c-0.538 0-1.07 0.03-1.592 0.089-8.861-0.107-16.164 6.956-16.337 15.832a16.149 16.149 0 0 0 3.67 10.57l120.119 146.142c7.836 9.534 21.918 10.91 31.452 3.074 0.158-0.13 0.316-0.263 0.47-0.398 9.75-8.476 11.244-23.066 3.413-33.34l-71.78-94.18z"  horiz-adv-x="1024" />

    
    <glyph glyph-name="qiandai" unicode="&#58631;" d="M380.571157 566.436052h284.035008c19.156292 0 37.59627 8.109702 49.892317 22.810519 29.311583 34.83232 57.111742 77.600379 63.35084 115.909893 12.558014 76.712149-20.315698 115.646903-115.646903 115.646903-95.332229 0-63.079664-62.548568-100.142791-67.710124-27.622104-3.834328-26.63973 32.605605-70.03303 67.62212-31.18321 25.036209-66.107627-45.703925-107.268072-46.15111-48.02376-0.62524-115.559922 12.652158-115.559923-69.407789 0-33.140795 29.0445-77.958536 60.761876-115.111714 12.744255-14.878872 31.100322-23.608697 50.610678-23.608698z m354.332051-73.056899c-15.146978 17.195637-37.155225 26.817786-60.049655 26.817785H371.748211c-21.918195 0-43.032072-8.822946-58.179051-24.680098-95.241154-99.785657-183.090968-242.250346-183.090968-346.137415 0-91.586928 92.03309-207.234855 205.543329-207.234855h351.926258c113.508193 0 205.542306 114.664529 205.542307 207.234855 0.002047 105.756649-70.650083 244.208954-158.586878 343.999728zM642.333906 367.305783l-60.941978-110.568235c-5.345752-9.710153 1.692548-21.648043 12.743232-21.648043h17.284665c8.015557 0 14.609743-6.502088 14.609743-14.611789 0-8.019651-6.505158-14.610766-14.609743-14.610766H567.938522c-8.463766 0-15.238053-6.770194-15.322987-15.237029v-7.217379c0-8.014534 6.503111-14.609743 14.611789-14.609742h44.186362c8.021697 0 14.611789-6.502088 14.611789-14.610766 0-8.104585-6.502088-14.611789-14.611789-14.611789h-44.186362c-8.019651 0-14.611789-6.502088-14.611789-14.61179v-37.154201c0-8.013511-6.507204-14.610766-14.609743-14.610766h-26.465768c-8.015557 0-14.612813 6.507204-14.612813 14.610766V124.966409c0 8.020674-6.502088 14.611789-14.608719 14.611789h-43.747363c-8.019651 0-14.608719 6.507204-14.60872 14.611789a14.559601 14.559601 0 0 0 14.60872 14.610766h43.656289c8.109702 0 14.611789 6.506181 14.699793 14.609743l0.092098 7.128351c0.088004 8.465812-6.770194 15.414061-15.322987 15.414061h-43.126217c-8.019651 0-14.608719 6.502088-14.608719 14.611789 0 8.019651 6.501064 14.610766 14.608719 14.610766h16.838504c11.141758 0 18.088984 11.938913 12.741185 21.650089l-60.93993 110.568235c-5.346775 9.710153 1.690502 21.649066 12.739139 21.649066h29.045523c5.525853 0 10.605545-3.114944 13.010315-8.015558l49.623187-98.987478c5.347798-10.69355 20.671809-10.69355 26.108635 0l49.622164 98.987478c2.495844 4.900613 7.484462 8.015557 13.010315 8.015558h29.043476c11.228739-0.176009 18.269086-12.024871 12.921288-21.73707z m0 0"  horiz-adv-x="1024" />

    
    <glyph glyph-name="qian1" unicode="&#59585;" d="M249.344 840.192h526.336c17.92 0 35.84-1.024 45.568 14.848 10.752 16.896-1.536 29.184-13.824 40.96H217.088c-12.8-11.264-23.552-23.04-14.848-39.424 9.216-16.896 28.16-16.384 47.104-16.384z m-96.256-107.52c10.24-8.192 23.04-6.656 35.84-6.656h653.312c25.088 0 40.96 11.264 39.424 28.672-1.536 18.944-15.36 28.16-37.888 28.16H195.072c-9.728 0-19.968 0-29.184-1.536-13.824-2.048-20.992-10.752-24.064-22.016-2.048-10.752 2.048-19.968 11.264-26.624zM1024 551.936c0 69.632-49.664 116.224-123.392 116.224h-773.12C50.688 668.16 0 620.544 0 549.376v-560.64c0-71.68 47.104-116.736 122.368-116.736H901.12c73.216 0 122.88 47.104 122.88 116.736v563.2z m-369.664-338.432c15.872 0 28.672-12.8 28.672-28.672s-12.8-28.672-28.672-28.672h-113.664v-113.664c0-15.872-12.8-28.672-28.672-28.672s-28.672 12.8-28.672 28.672v113.664H369.664c-15.872 0-28.672 12.8-28.672 28.672s12.8 28.672 28.672 28.672h113.664v56.832H369.664c-15.872 0-28.672 12.8-28.672 28.672s12.8 28.672 28.672 28.672h113.664v18.944L377.856 451.072c-10.752 10.752-10.752 28.16 0 38.4 10.752 10.752 28.16 10.752 38.912 0l102.4-101.888L624.64 493.056c11.264 11.264 29.184 11.264 40.448 0s11.264-29.184 0-40.448l-120.832-120.832c-1.024-1.024-2.048-2.048-3.584-3.072v-2.048h113.664c15.872 0 28.672-12.8 28.672-28.672s-12.8-28.672-28.672-28.672h-113.664v-56.832h113.664z"  horiz-adv-x="1024" />

    
    <glyph glyph-name="jia-" unicode="&#58881;" d="M74.9 372.5c-2.6 0-5.1 1-7.1 2.9-3.9 3.9-3.9 10.2 0 14.1L511.7 833.3 956 392.1c3.9-3.9 3.9-10.2 0-14.1-3.9-3.9-10.2-3.9-14.1 0L511.7 805.1 82 375.4c-1.9-2-4.5-2.9-7.1-2.9zM203-31c-5.5 0-10 4.5-10 10V372H75c-5.5 0-10 4.5-10 10s4.5 10 10 10h128c5.5 0 10-4.5 10-10v-403c0-5.5-4.5-10-10-10zM822-32c-5.5 0-10 4.5-10 10V384c0 5.5 4.5 10 10 10h127c5.5 0 10-4.5 10-10s-4.5-10-10-10H832v-396c0-5.5-4.5-10-10-10zM448-32H204c-5.5 0-10 4.5-10 10s4.5 10 10 10h244c5.5 0 10-4.5 10-10s-4.5-10-10-10zM821-32H576c-5.5 0-10 4.5-10 10s4.5 10 10 10h245c5.5 0 10-4.5 10-10s-4.5-10-10-10zM576-32c-5.5 0-10 4.5-10 10V246.10000000000002l-108 0.8V-21c0-5.5-4.5-10-10-10s-10 4.5-10 10V257c0 2.7 1.1 5.2 3 7.1 1.9 1.9 4.4 2.9 7 2.9h0.1l128-1c5.5 0 9.9-4.5 9.9-10v-278c0-5.5-4.5-10-10-10z"  horiz-adv-x="1024" />

    
    <glyph glyph-name="chongdianzhuang" unicode="&#58882;" d="M991.775776 768.256256L878.638639 880.624625a52.372372 52.372372 0 0 1-74.058058-74.058058l73.353353-73.545546-54.134134-56.504504a47.039039 47.039039 0 0 1 0-65.473474 43.083083 43.083083 0 0 1 32.16016-13.773774l61.245245 0.128128v-480.032032a32.032032 32.032032 0 0 0-64.064064 0V416.032032a138.650651 138.650651 0 0 1-138.57057 138.634635h-32.032032V810.666667A85.301301 85.301301 0 0 1 597.205205 896H149.333333a85.301301 85.301301 0 0 1-85.333333-85.333333V-21.397397h-10.634635a53.301301 53.301301 0 0 1 0-106.602603h640a53.301301 53.301301 0 0 1 0 106.602603h-10.826826v469.269269h32.032032a32.032032 32.032032 0 0 0 32.032032-32.032032v-298.538539a138.634635 138.634635 0 1 1 277.269269 0V691.635636a107.307307 107.307307 0 0 1-32.096096 76.62062zM500.628629 220.892893l-159.391392-225.825826a8.008008 8.008008 0 0 0-5.813814-2.482482 3.395395 3.395395 0 0 0-2.482482 0.832832c-3.875876 1.121121-5.253253 3.315315-4.148148 6.630631l25.737738 151.975976h-112.112113a5.957958 5.957958 0 0 0-5.813813 3.331331q-2.466466 3.283283 0.832832 7.463464l172.668669 225.825826c2.226226 3.315315 4.708709 3.85986 7.47948 1.601601 2.770771-0.560561 4.148148-2.786787 4.148148-6.646646l-25.737738-151.927928h98.786787a5.973974 5.973974 0 0 0 5.813814-3.315316 16.720721 16.720721 0 0 0 0.032032-7.463463z m75.275275 295.271271a46.750751 46.750751 0 0 0-46.894895-46.894895h-311.511512a46.750751 46.750751 0 0 0-46.894894 46.958959V742.374374a46.750751 46.750751 0 0 0 46.894894 46.894895h311.47948a46.750751 46.750751 0 0 0 46.894895-46.894895z"  horiz-adv-x="1024" />

    
    <glyph glyph-name="shouyi" unicode="&#59007;" d="M921.6 608H102.4C44.8 608 0 563.2 0 505.6v-531.2c0-57.6 44.8-102.4 102.4-102.4h819.2c57.6 0 102.4 44.8 102.4 102.4V505.6c0 57.6-44.8 102.4-102.4 102.4z m32-633.6c0-6.4-6.4-19.2-12.8-25.6s-12.8-12.8-25.6-12.8H102.4c-6.4 0-19.2 6.4-25.6 12.8-6.4 6.4-12.8 12.8-12.8 25.6V505.6c0 19.2 12.8 32 32 32h819.2c6.4 0 19.2-6.4 25.6-12.8s12.8-12.8 12.8-25.6v-524.8zM646.4 243.2H544v38.4h76.8c19.2 0 32 12.8 32 32s-12.8 32-32 32h-25.6l44.8 57.6c12.8 12.8 12.8 38.4 0 51.2-12.8 6.4-32 6.4-44.8-6.4L512 364.8 428.8 448c-12.8 12.8-32 12.8-44.8 0-12.8-12.8-12.8-32 0-44.8l51.2-51.2h-38.4c-19.2 0-32-12.8-32-32s12.8-32 32-32h76.8v-38.4H377.6c-19.2 0-32-12.8-32-32s12.8-32 32-32h102.4V64c0-19.2 12.8-32 32-32s32 12.8 32 32v121.6h102.4c19.2 0 32 12.8 32 32s-12.8 25.6-32 25.6zM102.4 678.4h819.2c19.2 0 32 12.8 32 32s-12.8 32-32 32H102.4c-19.2 0-32-12.8-32-32s12.8-32 32-32z m70.4 147.2h684.8c19.2 0 32 12.8 32 32s-19.2 38.4-38.4 38.4H172.8c-19.2 0-38.4-12.8-38.4-32s19.2-38.4 38.4-38.4z"  horiz-adv-x="1024" />

    
    <glyph glyph-name="down-hollow" unicode="&#59302;" d="M565.19752647 156.62347561c-12.01234468-12.01234468-28.31481246-23.16666475-43.75925564-19.73456629-15.44444316-2.57407386-30.03086171 9.43827083-42.0432064 19.73456629L107.8704038 529.8641854800001c-18.87654164 18.87654164-18.87654164 49.76542799 0 68.64196959s49.76542799 18.87654164 68.64196963 0l345.78392203-355.22219283L868.93824208 598.50615507c18.87654164 18.87654164 49.76542799 18.87654164 68.64196962 0s18.87654164-49.76542799 0-68.64196959l-372.38268523-373.24070987z"  horiz-adv-x="1024" />

    
    <glyph glyph-name="weixin" unicode="&#59174;" d="M853.267692 586.043077c14.375385 0 28.750769-1.378462 43.126154-2.756923C857.993846 762.88 665.796923 896 446.030769 896 201.058462 896 0 729.403077 0 517.710769c0-122.092308 66.953846-222.523077 178.609231-300.307692l-44.504616-133.710769 155.963077 78.76923a768 768 0 0 1 155.963077-22.646153c13.784615 0 28.16 0 41.747693 2.166153a325.513846 325.513846 0 0 0-13.587693 93.538462c0 192.787692 166.990769 350.523077 379.076923 350.523077zM613.021538 706.953846A52.578462 52.578462 0 0 0 669.538462 651.618462a53.169231 53.169231 0 0 0-56.123077-55.926154c-33.476923 0-66.953846 22.449231-66.953847 55.926154s33.673846 55.335385 66.56 55.335384z m-311.926153-111.261538c-33.476923 0-67.150769 22.449231-67.15077 55.926154s33.673846 55.335385 67.15077 55.335384a51.987692 51.987692 0 0 0 55.335384-55.335384 51.987692 51.987692 0 0 0-55.335384-55.926154zM1260.307692 239.261538c0 177.230769-178.609231 322.953846-379.076923 322.953847C669.538462 561.230769 502.153846 417.476923 502.153846 239.261538s167.384615-322.953846 379.076923-322.953846a544.886154 544.886154 0 0 1 134.104616 22.646154l122.486153-66.953846-33.476923 111.261538C1193.353846 49.230769 1260.307692 138.830769 1260.307692 239.261538z m-502.153846 55.926154a47.852308 47.852308 0 0 0-44.504615 44.504616A48.246154 48.246154 0 0 0 758.153846 384a51.396923 51.396923 0 0 0 56.123077-44.307692c0-22.646154-22.055385-44.504615-56.123077-44.504616z m245.563077 0a47.852308 47.852308 0 0 0-44.504615 44.504616A48.246154 48.246154 0 0 0 1004.307692 384a51.396923 51.396923 0 0 0 56.123077-44.307692A51.396923 51.396923 0 0 0 1004.307692 295.187692z"  horiz-adv-x="1260" />

    
    <glyph glyph-name="mingxi" unicode="&#59300;" d="M1003.2128-2.7648c9.6256-11.4688 14.9504-21.2992 15.4624-29.3888 1.024-8.192-2.1504-15.7696-9.6256-23.4496-4.3008-4.9152-9.1136-7.0656-15.4624-7.68-6.4512 0-13.312 1.1264-20.2752 3.7888-6.9632 2.7648-13.9264 6.0416-20.2752 9.8304-6.4512 4.4032-12.288 8.192-17.1008 12.4928L864.8704 27.648c-19.2512-11.4688-39.5264-19.6608-60.928-24.576-21.4016-4.9152-42.7008-7.0656-64.1024-6.0416-21.4016 1.6384-42.1888 6.5536-62.464 15.7696-20.2752 9.216-39.0144 22.3232-54.9888 39.2192-19.2512 18.5344-33.1776 39.8336-42.7008 63.7952-9.6256 23.9616-14.4384 48.5376-14.4384 73.0112 0 25.088 4.8128 49.5616 14.4384 73.0112 9.6256 23.9616 24.064 45.2608 42.7008 64.3072 18.1248 18.5344 39.5264 32.6656 63.5904 42.496 23.552 9.216 48.128 14.1312 72.0896 14.1312 24.576 0 48.64-4.9152 72.704-14.1312 24.064-9.3184 45.4656-23.4496 64.6144-42.496 15.9744-16.896 28.8768-35.9424 37.888-56.7296 9.1136-20.6848 14.9504-41.984 16.5888-63.7952 1.6384-21.8112 0-43.1104-5.3248-64.8192-4.8128-21.8112-13.4144-41.472-25.088-60.0064l39.0144-38.1952c10.1376-10.3424 19.7632-19.6608 28.3648-28.8768 7.7824-7.7824 13.7216-13.2096 16.384-16.4864z m-243.712 75.776c16.0768 0 31.0272 3.2768 44.8512 9.3184 13.9264 6.0416 26.2144 14.1312 36.352 25.088 10.6496 10.3424 18.7392 22.9376 24.576 37.0688 6.4512 14.1312 9.1136 29.4912 9.1136 45.7728 0 16.384-3.1744 31.6416-9.1136 45.2608-5.8368 13.6192-14.4384 26.2144-24.576 36.5568-10.1376 10.8544-22.4256 19.0464-36.352 25.088-13.9264 6.0416-28.8768 9.216-44.8512 9.216-15.4624 0-30.4128-3.2768-44.8512-9.216-13.9264-6.0416-26.2144-14.1312-36.864-25.088-10.6496-10.8544-18.7392-22.9376-24.576-36.5568-6.4512-14.1312-9.1136-29.3888-9.1136-45.2608 0-16.384 3.1744-31.6416 9.1136-45.7728 5.8368-14.1312 13.9264-26.7264 24.576-37.0688 10.6496-10.8544 22.4256-19.0464 36.864-25.088 13.9264-6.0416 28.8768-9.3184 44.8512-9.3184zM305.9712 737.4848h189.1328c21.9136 0 40.6528 21.2992 40.6528 46.8992 0 26.2144-18.7392 46.8992-41.6768 46.8992H305.9712c-22.9376 0-41.6768-20.6848-41.6768-46.8992s18.6368-46.8992 41.6768-46.8992z m0 0M490.8032 177.664H194.2528c-14.9504 0-29.9008 18.5344-29.9008 34.304 0 15.2576 12.8 28.3648 27.7504 28.3648h305.664c8.4992 38.1952 25.088 73.6256 47.0016 104.1408H195.8912c-14.9504 0-24.576 16.384-24.576 31.6416 0 15.2576 12.8 30.5152 27.7504 30.5152h408.7808c44.3392 31.6416 97.792 49.5616 156.0576 49.5616 12.8 0 25.6-1.1264 37.888-2.7648V692.224c0 63.7952-33.6896 107.9296-104.1408 107.9296H604.16c1.024-4.9152 1.6384-10.3424 1.6384-15.7696 0-39.2192-27.7504-78.5408-61.44-78.5408H256.2048c-35.2256 0-63.0784 38.7072-63.0784 78.5408 0 5.4272 0.512 10.3424 1.6384 15.7696H100.2496C23.8592 800.1536 5.12 756.0192 5.12 692.224v-630.1696c0-68.096 26.7264-106.2912 100.4544-106.2912h493.1584C533.504 6.5536 490.8032 87.1424 490.8032 177.664zM199.0656 578.3552h406.016c14.9504 0 27.7504-14.1312 28.8768-30.5152 0-15.2576-15.9744-31.6416-31.0272-31.6416H195.2768c-14.9504 0-24.576 16.384-24.576 31.6416 1.1264 15.2576 13.4144 30.5152 28.3648 30.5152z m0 0"  horiz-adv-x="1024" />

    
    <glyph glyph-name="gateway-device" unicode="&#58629;" d="M659.619884 452.271265a44.143877 44.143877 0 0 0-44.143877 44.143877 104.841708 104.841708 0 0 1-209.683416 0 44.143877 44.143877 0 1 0-88.287755 0 193.129462 193.129462 0 1 0 386.258925 0 44.143877 44.143877 0 0 0-44.143877-44.143877zM794.810508 452.271265a44.143877 44.143877 0 0 0-44.143877 44.143877 240.032332 240.032332 0 1 1-480.064664 0 44.143877 44.143877 0 0 0-88.287754 0 328.320086 328.320086 0 1 0 656.640172 0 44.143877 44.143877 0 0 0-44.143877-44.143877zM898.27272 300.52668700000004h-342.115048v151.744578a44.143877 44.143877 0 0 1-88.287754 0v-151.744578h-342.115048a55.179846 55.179846 0 0 1-55.179846-55.179846v-246.929813a55.179846 55.179846 0 0 1 55.179846-55.179846h772.51785a55.179846 55.179846 0 0 1 55.179846 55.179846v246.929813a55.179846 55.179846 0 0 1-55.179846 55.179846zM206.676115 77.73805700000003a44.143877 44.143877 0 1 0 44.143877 44.143878 44.143877 44.143877 0 0 0-44.143877-44.143878z m133.783537 0a44.143877 44.143877 0 1 0 44.143878 44.143878 44.143877 44.143877 0 0 0-44.143878-44.143878z"  horiz-adv-x="1024" />

    
    <glyph glyph-name="xiala2" unicode="&#58630;" d="M739.37652439 415.86419315c12.01234468-12.01234468 23.16666475-28.31481246 19.73456629-43.75925565 2.57407386-15.44444316-9.43827083-30.03086171-19.73456626-42.04320639L366.13581452-41.46292953c-18.87654164-18.87654164-49.76542799-18.87654164-68.64196959 0s-18.87654164 49.76542799 0 68.64196963l355.22219283 345.78392203L297.49384493 719.60490875c-18.87654164 18.87654164-18.87654164 49.76542799-1e-8 68.64196962s49.76542799 18.87654164 68.6419696-1e-8l373.24070987-372.38268521z"  horiz-adv-x="1024" />

    
    <glyph glyph-name="shanchu" unicode="&#59118;" d="M799.2 21.6c0-34.4-28-62.4-62.4-62.4H287.2c-34.4 0-62.4 28-62.4 62.4V684h574.4v-662.4zM349.6 796c0 7.2 5.6 12.8 12.8 12.8h300c7.2 0 12.8-5.6 12.8-12.8v-37.6H349.6v37.6z m636.8-37.6H749.6v37.6c0 48-39.2 87.2-87.2 87.2H362.4c-48 0-87.2-39.2-87.2-87.2v-37.6H37.6c-20.8 0-37.6-16.8-37.6-37.6s16.8-37.6 37.6-37.6h112v-661.6c0-76 61.6-137.6 137.6-137.6h449.6c76 0 137.6 61.6 137.6 137.6V684h112c20.8 0 37.6 16.8 37.6 37.6s-16.8 36.8-37.6 36.8zM512 72c20.8 0 37.6 16.8 37.6 37.6v400c0 20.8-16.8 37.6-37.6 37.6s-37.6-16.8-37.6-37.6v-400c0-20.8 16.8-37.6 37.6-37.6m-175.2 0c20.8 0 37.6 16.8 37.6 37.6v400c0 20.8-16.8 37.6-37.6 37.6s-37.6-16.8-37.6-37.6v-400c0.8-20.8 17.6-37.6 37.6-37.6m350.4 0c20.8 0 37.6 16.8 37.6 37.6v400c0 20.8-16.8 37.6-37.6 37.6s-37.6-16.8-37.6-37.6v-400c0-20.8 16.8-37.6 37.6-37.6"  horiz-adv-x="1024" />

    
    <glyph glyph-name="daichuli" unicode="&#58948;" d="M248.5248 802.133333H157.866667A89.6 89.6 0 0 1 68.266667 712.533333v-716.8A89.6 89.6 0 0 1 157.866667-93.866667h315.460266v59.733334H157.866667a29.866667 29.866667 0 0 0-29.866667 29.866666v716.8c0 16.4864 13.380267 29.866667 29.866667 29.866667h90.658133V802.133333zM660.48 742.4V802.133333h94.72a89.6 89.6 0 0 0 89.6-89.6v-295.458133H785.066667V712.533333a29.866667 29.866667 0 0 1-29.866667 29.866667H660.48z m-293.546667 59.733333h180.155734V742.4H366.933333V802.133333zM277.333333 861.866667m29.866667 0l0 0q29.866667 0 29.866667-29.866667l0-119.466667q0-29.866667-29.866667-29.866666l0 0q-29.866667 0-29.866667 29.866666l0 119.466667q0 29.866667 29.866667 29.866667ZM576 861.866667m29.866667 0l0 0q29.866667 0 29.866666-29.866667l0-119.466667q0-29.866667-29.866666-29.866666l0 0q-29.866667 0-29.866667 29.866666l0 119.466667q0 29.866667 29.866667 29.866667ZM187.733333 593.066667m29.866667 0l448 0q29.866667 0 29.866667-29.866667l0 0q0-29.866667-29.866667-29.866667l-448 0q-29.866667 0-29.866667 29.866667l0 0q0 29.866667 29.866667 29.866667ZM187.733333 443.733333m29.866667 0l328.533333 0q29.866667 0 29.866667-29.866666l0 0q0-29.866667-29.866667-29.866667l-328.533333 0q-29.866667 0-29.866667 29.866667l0 0q0 29.866667 29.866667 29.866666ZM187.733333 294.4m29.866667 0l179.2 0q29.866667 0 29.866667-29.866667l0 0q0-29.866667-29.866667-29.866666l-179.2 0q-29.866667 0-29.866667 29.866666l0 0q0 29.866667 29.866667 29.866667ZM695.466667-25.6a170.666667 170.666667 0 1 1 0 341.333333 170.666667 170.666667 0 0 1 0-341.333333z m0-68.266667a238.933333 238.933333 0 1 0 0 477.866667 238.933333 238.933333 0 0 0 0-477.866667zM635.733333 115.2v119.466667a29.866667 29.866667 0 1 0 59.733334 0V145.066667H785.066667a29.866667 29.866667 0 1 0 0-59.733334h-119.466667a29.866667 29.866667 0 0 0-29.866667 29.866667z"  horiz-adv-x="1024" />

    
    <glyph glyph-name="icon-test" unicode="&#58632;" d="M855.21395573-8.095151249999958V655.32984467L512 874.11893907l-343.21395573-218.7890944V-8.095151249999958H21.88106093v-98.02378782h980.23787814V-8.095151249999958h-146.90498334z m-392.09515124 98.02378782h-98.02378779V187.95242437000002h98.02378779v-98.0237878z m0 196.04757561h-98.02378779V384h98.02378779v-98.02378782z m0 294.07136345h98.02378785v-98.02378781h-98.02378785V580.04757563z m196.04757562-490.11893906h-98.02378777V187.95242437000002h98.02378777v-98.0237878z m0 196.04757561h-98.02378777V384h98.02378777v-98.02378782z"  horiz-adv-x="1024" />

    
    <glyph glyph-name="wodedangxuan" unicode="&#58691;" d="M907.264-70.65599999999995H114.688c-16.384 0-32.768 8.192-43.008 20.48-10.24 14.336-14.336 30.72-10.24 47.104 40.96 208.896 210.944 364.544 415.744 380.928 68.608 0 142.848-8.704 217.088-38.912 21.504-8.704 28.672-14.336 40.96-20.48 118.784-67.584 200.704-184.32 227.328-321.536 4.096-16.384 0-32.768-12.288-47.104-10.24-12.288-26.624-20.48-43.008-20.48zM115.712-37.375999999999976c-6.656 0-12.8 2.56-16.384 7.168-0.512 0.512-0.512 1.024-1.024 1.536-5.12 5.12-5.632 13.824-4.608 18.944 37.888 194.56 197.12 340.48 387.584 354.304h15.36c91.648 0 179.712-28.672 222.72-55.808C832 221.18399999999997 907.264 115.20000000000005 930.816-9.727999999999952c1.024-7.168-0.512-13.824-5.632-20.48-3.584-4.608-9.728-7.168-16.384-7.168H115.712zM496.64 332.288c89.088 0 174.592-27.648 216.064-53.76h0.512c109.568-65.024 182.272-167.936 204.8-289.792 0.512-2.56 0.512-6.144-3.584-10.752-0.512-1.024-3.072-2.048-6.144-2.048H115.712c-3.072 0-5.632 1.024-6.144 2.048-0.512 1.024-1.536 2.048-2.56 2.56-1.024 1.024-2.048 4.096-1.024 7.68 36.864 188.928 190.976 330.24 375.808 344.064 4.608-0.512 9.728 0 14.848 0m0 25.6c-5.12 0-10.752 0-15.872-0.512C284.16 343.03999999999996 120.32 193.53599999999994 81.408-7.168000000000006c-2.048-10.24 0-22.528 8.192-30.72 6.144-8.192 16.384-12.288 26.624-12.288H908.8c10.24 0 20.48 4.096 26.624 12.288 6.144 8.192 10.24 18.432 8.192 30.72-24.576 131.072-102.4 238.592-217.088 307.2-43.52 27.136-132.608 57.856-229.888 57.856zM512 359.424c-129.024 0-235.52 106.496-235.52 235.52S382.976 830.4639999999999 512 830.4639999999999s235.52-106.496 235.52-235.52S641.024 359.424 512 359.424zM512 392.704c-111.616 0-202.24 90.624-202.24 202.24S400.384 797.184 512 797.184s202.24-90.624 202.24-202.24-90.624-202.24-202.24-202.24zM512 784.384c104.448 0 189.44-84.992 189.44-189.44S616.448 405.504 512 405.504s-189.44 84.992-189.44 189.44 84.992 189.44 189.44 189.44m0 25.6c-118.784 0-215.04-96.256-215.04-215.04s96.256-215.04 215.04-215.04 215.04 96.256 215.04 215.04S630.784 809.984 512 809.984z"  horiz-adv-x="1024" />

    
    <glyph glyph-name="jifen1" unicode="&#58910;" d="M79.0528 47.3088c-23.3472 0-42.1888 18.8416-42.1888 42.1888V710.0416c0 23.3472 18.8416 42.1888 42.1888 42.1888s42.1888-18.8416 42.1888-42.1888v-620.544c0-23.3472-18.8416-42.1888-42.1888-42.1888zM799.5392 47.3088c-23.3472 0-42.1888 18.8416-42.1888 42.1888V710.0416c0 23.3472 18.8416 42.1888 42.1888 42.1888s42.1888-18.8416 42.1888-42.1888v-620.544c0.4096-23.3472-18.8416-42.1888-42.1888-42.1888zM439.5008 567.5008C289.9968 567.5008 36.864 599.8592 36.864 721.5104S289.5872 875.52 439.5008 875.52s402.6368-32.3584 402.6368-154.0096-253.1328-154.0096-402.6368-154.0096z m0 223.6416c-203.9808 0-310.4768-51.2-318.2592-71.2704 8.192-16.7936 114.688-67.584 318.2592-67.584 198.2464 0 304.3328 48.3328 317.44 69.632-13.5168 20.8896-119.6032 69.2224-317.44 69.2224zM439.5008 355.328C289.9968 355.328 36.864 387.6864 36.864 509.3376c0 23.3472 18.8416 42.1888 42.1888 42.1888s42.1888-18.8416 42.1888-42.1888c7.7824-18.432 114.2784-69.632 318.2592-69.632 203.9808 0 310.4768 51.2 318.2592 71.2704 0 23.3472 18.8416 41.3696 42.1888 41.3696 23.3472 0 42.1888-19.6608 42.1888-43.008 0-121.6512-253.1328-154.0096-402.6368-154.0096zM439.5008 143.1552c-149.504 0-402.6368 32.3584-402.6368 154.0096 0 23.3472 18.8416 42.1888 42.1888 42.1888s42.1888-18.8416 42.1888-42.1888c7.7824-18.432 114.2784-69.632 318.2592-69.632 203.9808 0 310.4768 50.7904 318.2592 71.2704 0 23.3472 18.8416 41.3696 42.1888 41.3696 23.3472 0 42.1888-19.6608 42.1888-43.008 0-121.2416-253.1328-154.0096-402.6368-154.0096zM439.5008-69.0176C289.9968-69.0176 36.864-36.6592 36.864 84.992c0 23.3472 18.8416 42.1888 42.1888 42.1888s42.1888-18.8416 42.1888-42.1888c7.7824-18.432 114.2784-69.632 318.2592-69.632 203.9808 0 310.4768 51.2 318.2592 71.2704 0 23.3472 18.8416 41.3696 42.1888 41.3696 23.3472 0 42.1888-19.6608 42.1888-43.008 0-121.2416-253.1328-154.0096-402.6368-154.0096zM464.896 469.1968h461.2096v-496.4352H464.896zM706.1504 314.368c-129.8432 0-281.3952 30.3104-281.3952 116.3264s151.552 116.3264 281.3952 116.3264 281.3952-30.3104 281.3952-116.3264-151.552-116.3264-281.3952-116.3264z m-187.1872 116.3264c26.2144-13.9264 91.3408-31.9488 187.1872-31.9488s160.9728 18.0224 187.1872 31.9488c-26.2144 13.9264-91.3408 31.9488-187.1872 31.9488s-160.9728-18.0224-187.1872-31.9488zM706.1504 100.1472c-129.8432 0-281.3952 30.3104-281.3952 116.3264 0 23.3472 18.8416 42.1888 42.1888 42.1888 20.8896 0 38.5024-15.5648 41.7792-35.6352 15.1552-13.9264 85.1968-38.5024 197.4272-38.5024s182.272 24.576 197.4272 38.5024c3.2768 20.0704 20.48 35.6352 41.7792 35.6352 23.3472 0 42.1888-18.8416 42.1888-42.1888 0-86.016-151.552-116.3264-281.3952-116.3264zM706.1504-107.52c-129.8432 0-281.3952 30.3104-281.3952 116.3264 0 23.3472 18.8416 42.1888 42.1888 42.1888 20.8896 0 38.5024-15.5648 41.7792-35.6352 15.1552-13.9264 85.1968-38.5024 197.4272-38.5024s182.272 24.576 197.4272 38.5024c3.2768 20.0704 20.48 35.6352 41.7792 35.6352 23.3472 0 42.1888-18.8416 42.1888-42.1888 0-86.016-151.552-116.3264-281.3952-116.3264zM467.3536-30.5152c-23.3472 0-42.1888 18.8416-42.1888 42.1888V422.912c0 23.3472 18.8416 42.1888 42.1888 42.1888s42.1888-18.8416 42.1888-42.1888v-411.2384c0-23.3472-18.8416-42.1888-42.1888-42.1888zM944.9472-30.5152c-23.3472 0-42.1888 18.8416-42.1888 42.1888V422.912c0 23.3472 18.8416 42.1888 42.1888 42.1888s42.1888-18.8416 42.1888-42.1888v-411.2384c0.4096-23.3472-18.8416-42.1888-42.1888-42.1888z"  horiz-adv-x="1024" />

    
    <glyph glyph-name="dian" unicode="&#59078;" d="M825.045227 411.675316l-251.727185 52.232618L680.886967 829.927165 198.248691 355.304448l251.727185-52.232619-107.568924-366.019231 482.638275 474.622718z"  horiz-adv-x="1024" />

    
    <glyph glyph-name="xingming" unicode="&#58633;" d="M285.1 571.6c0-125.1 101.4-226.4 226.4-226.4s226.4 101.4 226.4 226.4S636.5 798.1 511.5 798.1 285.1 696.7 285.1 571.6zM765.8-16.399999999999977c-78.7-13.3-295.4-13.3-448-4.8-92 4.8-144.1 15.7-161 78.7 0 121.1 99.3 291.8 219.2 291.8l94.4-29.1c26.6-4.8 53.3-4.8 79.9 0l100.5 29.1c121.1 0 219.2-171.9 219.2-291.8 2.3-50.9-34-63-104.2-73.9z"  horiz-adv-x="1024" />

    
    <glyph glyph-name="dingdan" unicode="&#58950;" d="M314.2953125 153.54375000000005c-14.814375 0-26.821875-12.0328125-26.821875-26.806875 0-14.805 12.045-26.8059375 26.821875-26.8059375h396.7040625c14.814375 0 26.8228125 12.031875 26.8228125 26.8059375 0 14.805-12.0459375 26.8059375-26.821875 26.8059375H314.294375z m0 166.2c-14.814375 0-26.821875-12.031875-26.821875-26.8059375 0-14.805 12.045-26.8059375 26.821875-26.8059375h396.7040625c14.814375 0 26.8228125 12.031875 26.8228125 26.8059375 0 14.8040625-12.0459375 26.8059375-26.821875 26.8059375H314.294375z m0 166.2c-14.814375 0-26.821875-12.031875-26.821875-26.8059375 0-14.8040625 12.045-26.8059375 26.821875-26.8059375h396.7040625c14.814375 0 26.8228125 12.031875 26.8228125 26.8059375 0 14.805-12.0459375 26.806875-26.821875 26.806875H314.294375z m402.0815625 241.2590625h80.4609375c29.529375 0 53.5715625-24 53.5715625-53.60625v-659.454375c0-29.6090625-23.9840625-53.60625-53.5715625-53.60625H228.4578125c-29.5303125 0-53.5725 24-53.5725 53.60625V673.5965625c0 29.608125 23.985 53.60625 53.5725 53.60625h75.099375v-112.599375c0-11.836875 9.59625-21.433125 21.46875-21.433125h369.88125c11.8584375 0 21.4696875 9.5625 21.4696875 21.433125V727.2028124999999zM603.790625 759.3703125h48.28875c5.848125 0 10.685625-4.7878125 10.685625-10.6940625v-91.2c0-5.8565625-4.785-10.6940625-10.685625-10.6940625H373.21625c-5.848125 0-10.6846875 4.7878125-10.6846875 10.6940625v91.2c0 5.8565625 4.7840625 10.6940625 10.6846875 10.6940625h42.928125V796.9528124999999c0 11.825625 9.59625 21.3928125 21.4340625 21.3928125h144.778125c11.8715625 0 21.4340625-9.5775 21.4340625-21.3928125v-37.5825z"  horiz-adv-x="1024" />

    
    <glyph glyph-name="charging" unicode="&#58885;" d="M938.666667 353.79200000000003A341.333333 341.333333 0 1 1 456.874667-128H170.666667a85.333333 85.333333 0 0 0-85.333334 85.333333V810.666667a85.333333 85.333333 0 0 0 85.333334 85.333333h682.666666a85.333333 85.333333 0 0 0 85.333334-85.333333v-456.874667zM682.666667-128a256 256 0 1 0 0 512 256 256 0 0 0 0-512z m23.210666 282.709333l49.493334 157.44-221.866667-204.117333 115.712-22.528-49.493333-157.354667 221.866666 204.117334-115.712 22.442666zM213.333333 640h426.666667a42.666667 42.666667 0 1 1 0 85.333333h-426.666667a42.666667 42.666667 0 1 1 0-85.333333z m0-170.666667H426.666667a42.666667 42.666667 0 1 1 0 85.333334H213.333333a42.666667 42.666667 0 1 1 0-85.333334z m0-170.666666h106.666667a42.666667 42.666667 0 1 1 0 85.333333H213.333333a42.666667 42.666667 0 1 1 0-85.333333z"  horiz-adv-x="1024" />

    
    <glyph glyph-name="fenxiaoshang" unicode="&#58995;" d="M887.467-128c-74.473 0-136.534 62.06-136.534 136.533 0 49.649 27.928 96.194 68.267 117.915-40.34 124.122-145.842 211.007-273.067 223.419v-207.903c62.06-15.516 105.503-68.267 105.503-133.43 0-74.473-62.06-136.534-136.533-136.534S378.57-65.94 378.57 8.533c0 65.164 46.545 121.019 108.606 133.43V349.868c-127.224-12.412-235.83-99.297-276.17-223.419 37.236-21.72 65.164-68.266 65.164-117.915 0-74.472-62.06-136.533-136.534-136.533S0-65.94 0 8.533c0 74.473 62.06 136.534 136.533 136.534h9.31c46.545 148.945 179.975 254.448 335.127 266.86v93.091c-93.091 15.515-164.46 96.194-164.46 192.388C316.51 809.116 403.393 896 512 896c108.606 0 195.49-86.885 195.49-195.49 0-96.195-68.266-179.977-164.46-192.389v-93.09c155.152-12.413 285.48-117.916 335.128-266.861h9.309c74.472 0 136.533-62.06 136.533-136.534C1024-65.939 961.94-128 887.467-128z m0 214.11c-40.34 0-74.473-34.134-74.473-74.474s34.133-74.472 74.473-74.472c40.34 0 74.472 34.133 74.472 74.472s-34.133 74.473-74.472 74.473z m-375.467 0c-40.34 0-74.473-34.134-74.473-74.474s34.134-74.472 74.473-74.472c40.34 0 74.473 34.133 74.473 74.472S552.339 86.11 512 86.11z m-375.467 0c-40.34 0-74.472-34.134-74.472-74.474s34.133-77.575 74.472-77.575 74.473 34.133 74.473 74.472-31.03 77.576-74.473 77.576zM512 833.94c-74.473 0-133.43-58.958-133.43-133.43S437.527 567.078 512 567.078c74.473 0 133.43 58.957 133.43 133.43S586.473 833.94 512 833.94z"  horiz-adv-x="1024" />

    
    <glyph glyph-name="dizhi" unicode="&#58934;" d="M506.6-63.7l-21 20C473.5-32.1 189.2 242 189.2 487.4c0 171.1 109.4 344.4 318.6 344.4 215 0 327.6-173.2 327.6-344.4 0-267.7-294.2-521.6-306.7-532.3l-22.1-18.8z m1.2 831.2c-122.5 0-254.3-87.6-254.3-280 0-181.9 190.8-396 255.4-463.3 66.7 63.1 262.1 265 262.1 463.3 0.1 134.8-82.3 280-263.2 280zM512.3 361.5c-83.9 0-152.2 68.3-152.2 152.2s68.3 152.2 152.2 152.2 152.2-68.3 152.2-152.2-68.3-152.2-152.2-152.2z m0 240.1c-48.5 0-87.9-39.4-87.9-87.9s39.4-87.9 87.9-87.9 87.9 39.4 87.9 87.9-39.4 87.9-87.9 87.9z"  horiz-adv-x="1024" />

    
    <glyph glyph-name="me1" unicode="&#58640;" d="M859.4-15.600000000000023H162.8c-14.4 0-28.8 7.2-37.8 18-9 12.6-12.6 27-9 41.4 36 183.6 185.4 320.4 365.4 334.8 60.3 0 125.55-7.65 190.8-34.2 18.9-7.65 25.2-12.6 36-18 104.4-59.4 176.4-162 199.8-282.6 3.6-14.4 0-28.8-10.8-41.4-9-10.8-23.4-18-37.8-18zM163.7 13.649999999999977c-5.85 0-11.25 2.25-14.4 6.3-0.45 0.45-0.45 0.9-0.9 1.35-4.5 4.5-4.95 12.15-4.05 16.65 33.3 171 173.25 299.25 340.65 311.4h13.5c80.55 0 157.95-25.2 195.75-49.05C793.25 240.89999999999998 859.4 147.75 880.1 37.950000000000045c0.9-6.3-0.45-12.15-4.95-18-3.15-4.05-8.55-6.3-14.4-6.3H163.7zM498.5 338.54999999999995c78.3 0 153.45-24.3 189.9-47.25h0.45c96.3-57.15 160.2-147.6 180-254.7 0.45-2.25 0.45-5.4-3.15-9.45-0.45-0.9-2.7-1.8-5.4-1.8H163.7c-2.7 0-4.95 0.9-5.4 1.8-0.45 0.9-1.35 1.8-2.25 2.25-0.9 0.9-1.8 3.6-0.9 6.75 32.4 166.05 167.85 290.25 330.3 302.4 4.05-0.45 8.55 0 13.05 0m0 22.5c-4.5 0-9.45 0-13.95-0.45C311.75 348 167.75 216.60000000000002 133.55 40.200000000000045c-1.8-9 0-19.8 7.2-27 5.4-7.2 14.4-10.8 23.4-10.8H860.75c9 0 18 3.6 23.4 10.8 5.4 7.2 9 16.2 7.2 27-21.6 115.2-90 209.7-190.8 270-38.25 23.85-116.55 50.85-202.05 50.85zM512 362.4c-113.4 0-207 93.6-207 207S398.6 776.4 512 776.4s207-93.6 207-207S625.4 362.4 512 362.4zM512 391.65c-98.1 0-177.75 79.65-177.75 177.75S413.9 747.15 512 747.15s177.75-79.65 177.75-177.75-79.65-177.75-177.75-177.75zM512 735.9c91.8 0 166.5-74.7 166.5-166.5S603.8 402.9 512 402.9s-166.5 74.7-166.5 166.5 74.7 166.5 166.5 166.5m0 22.5c-104.4 0-189-84.6-189-189s84.6-189 189-189 189 84.6 189 189S616.4 758.4 512 758.4z"  horiz-adv-x="1024" />

    
    <glyph glyph-name="yonghuzhinan" unicode="&#58900;" d="M210.346381 685.653622c-166.604656-166.604656-166.604656-436.755919 0-603.360575 166.604656-166.604656 436.755919-166.604656 603.360575 0 166.604656 166.604656 166.604656 436.755919 0 603.360575-166.604656 166.604656-436.755919 166.604656-603.360575 0zM150.018856 745.981147c199.925587 199.968252 524.090037 199.968252 724.015624 0 199.968252-199.925587 199.968252-524.090037 0-724.015624-199.925587-199.968252-524.090037-199.968252-724.015624 0-199.968252 199.925587-199.968252 524.090037 0 724.015624z m162.03956-614.368002a42.664445 42.664445 0 0 0-52.391938 52.391938l90.533952 331.886714a42.664445 42.664445 0 0 0 29.907775 29.907776l331.886715 90.533951a42.664445 42.664445 0 0 0 52.391938-52.391938l-90.533952-331.886714a42.664445 42.664445 0 0 0-29.907775-29.907775l-331.886715-90.533952z m285.894443 166.433998l64.423312 236.318359-236.275694-64.465976-64.423312-236.318358 236.275694 64.465975z m-55.762429 55.762429a42.664445 42.664445 0 1 0-60.327524 60.327525 42.664445 42.664445 0 0 0 60.327524-60.327525z"  horiz-adv-x="1024" />

    
    <glyph glyph-name="guizeshezhi" unicode="&#59001;" d="M488.0384 204.8a179.2 179.2 0 1 0 0 358.4 179.2 179.2 0 0 0 0-358.4z m0 61.44a117.76 117.76 0 1 1 0 235.52 117.76 117.76 0 0 1 0-235.52zM774.5536 12.5952h170.5984a27.648 27.648 0 0 0 27.648-27.648v-6.144a27.648 27.648 0 0 0-27.648-27.648h-170.5984a27.648 27.648 0 0 0-27.648 27.648v6.144a27.648 27.648 0 0 0 27.648 27.648z m0 121.1392h170.5984a27.648 27.648 0 0 0 27.648-27.648v-6.144a27.648 27.648 0 0 0-27.648-27.648h-170.5984a27.648 27.648 0 0 0-27.648 27.648v6.144a27.648 27.648 0 0 0 27.648 27.648z m0 121.1392h170.5984a27.648 27.648 0 0 0 27.648-27.648v-6.144a27.648 27.648 0 0 0-27.648-27.648h-170.5984a27.648 27.648 0 0 0-27.648 27.648v6.144a27.648 27.648 0 0 0 27.648 27.648zM665.6 145.92v-72.8576a356.8128 356.8128 0 0 0-49.5616-23.6032V-5.12a71.68 71.68 0 0 0-71.68-71.68h-112.64a71.68 71.68 0 0 0-71.68 71.68v53.9648A357.9904 357.9904 0 0 0 261.632 105.472l-46.592-26.88a71.68 71.68 0 0 0-97.8944 26.2144l-56.32 97.5872a71.68 71.68 0 0 0 26.2144 97.8944l46.336 26.7264a361.0112 361.0112 0 0 0 0 113.9712L87.04 467.712a71.68 71.68 0 0 0-26.2144 97.8944l56.32 97.5872A71.68 71.68 0 0 0 215.04 689.408l46.592-26.88a357.9904 357.9904 0 0 0 98.4064 56.6272V773.12a71.68 71.68 0 0 0 71.68 71.68h112.64a71.68 71.68 0 0 0 71.68-71.68v-54.5792a358.0416 358.0416 0 0 0 97.4848-56.576l47.5136 27.4432a71.68 71.68 0 0 0 97.8944-26.2144l56.32-97.5872a71.68 71.68 0 0 0-26.2144-97.8944l-47.7696-27.5456A361.0624 361.0624 0 0 0 842.0352 332.8h-61.44a298.8544 298.8544 0 0 1-8.5504 138.2912l53.7088 31.0272 10.3936 5.9904a35.84 35.84 0 0 1 13.1072 48.9472l-30.72 53.248a35.84 35.84 0 0 1-48.9472 13.1072l-10.3424-5.9904-53.8624-31.0784a296.6528 296.6528 0 0 1-150.784 87.1424V747.52a35.84 35.84 0 0 1-35.84 35.84h-61.44a35.84 35.84 0 0 1-35.84-35.84v-74.0352a296.6528 296.6528 0 0 1-150.784-87.1424l-54.8864 31.6928-9.3184 5.376a35.84 35.84 0 0 1-48.9472-13.1072l-30.72-53.248a35.84 35.84 0 0 1 13.1072-48.9472l9.1136-5.2224 55.04-31.744A296.96 296.96 0 0 1 191.0784 384a296.96 296.96 0 0 1 13.0048-87.0912l-55.04-31.744-9.1136-5.2736a35.84 35.84 0 0 1-13.1072-48.9472l30.72-53.248a35.84 35.84 0 0 1 48.9472-13.1072l9.3184 5.376 54.8864 31.6928a296.6528 296.6528 0 0 1 150.784-87.1424V20.48a35.84 35.84 0 0 1 35.84-35.84h61.44a35.84 35.84 0 0 1 35.84 35.84V94.5152A295.68 295.68 0 0 1 665.6 145.9712z"  horiz-adv-x="1024" />

    
    <glyph glyph-name="guizeguanli" unicode="&#58918;" d="M896 406.08A121.856 121.856 0 0 0 833.28 512h-130.368c0.128-20.864-5.248-42.048-16.832-61.44-34.816-58.112-112.192-77.888-172.864-44.16L448 297.408c18.752-10.24 35.008-25.344 46.592-44.672 34.752-58.048 13.888-132.48-46.464-166.4L499.776 0H128V896h768v-489.92zM256 704v-64h512V704H256z m0-192v-64h192V512H256z m0-192v-64h128V320H256z m730.624-177.152c9.152-15.36 22.08-27.328 36.992-35.584l-52.16-87.168c-48.512 26.816-110.272 10.944-138.048-35.456-9.152-15.36-13.504-32.128-13.44-48.64h-104.32c-0.32 53.888-45.376 97.472-100.928 97.472-18.368 0-35.648-4.8-50.496-13.12l-52.16 87.168c48.32 27.136 65.024 86.656 37.184 133.12A98.304 98.304 0 0 1 512 276.352l52.16 87.168c48.576-27.008 110.464-11.2 138.304 35.328 9.28 15.488 13.568 32.448 13.44 49.152h104.32c0-54.144 45.184-97.984 100.928-97.984 18.496 0 35.84 4.8 50.688 13.248L1024 276.096c-48.512-27.072-65.28-86.72-37.376-133.248zM768 115.2a76.8 76.8 0 1 1 0 153.6 76.8 76.8 0 0 1 0-153.6z"  horiz-adv-x="1024" />

    
    <glyph glyph-name="fankui" unicode="&#58951;" d="M944.64128 531.84a38.4 38.4 0 0 0 38.4 38.4 38.4 38.4 0 0 0 38.4-38.4v-493.44a167.04 167.04 0 0 0-166.4-166.4H166.40128A166.4 166.4 0 0 0 0.00128 38.4V725.76A165.76 165.76 0 0 0 166.40128 892.16h451.2a38.4 38.4 0 0 0 0-76.8h-448a89.6 89.6 0 0 1-92.8-89.6V38.4a89.6 89.6 0 0 1 89.6-89.6h688.64a89.6 89.6 0 0 1 89.6 89.6zM230.40128 444.16h243.2a38.4 38.4 0 0 0 38.4-38.4 38.4 38.4 0 0 0-38.4-38.4H230.40128a38.4 38.4 0 0 0-38.4 38.4 38.4 38.4 0 0 0 38.4 38.4zM230.40128 252.16h499.2a38.4 38.4 0 0 0 38.4-38.4 38.4 38.4 0 0 0-38.4-38.4H230.40128a38.4 38.4 0 0 0-38.4 38.4 38.4 38.4 0 0 0 38.4 38.4zM589.44128 501.76l411.52 384a39.04 39.04 0 0 0 54.4 0 38.4 38.4 0 0 0 0-54.4L640.00128 444.16a37.76 37.76 0 0 0-53.76 0 37.76 37.76 0 0 0 3.2 57.6z"  horiz-adv-x="1066" />

    
    <glyph glyph-name="money" unicode="&#58986;" d="M637.41 534.665a224.77 224.77 0 0 1 99.588 186.827A84.374 84.374 0 0 1 601.999 789a112.499 112.499 0 0 1-179.998 0 84.374 84.374 0 0 1-134.999-67.508 224.77 224.77 0 0 1 99.588-186.827C214.836 481.263 90.13 321.07500000000005 90.13 131.75199999999995 90.13 22.539999999999964 178.67-66 287.88-66H736.12c109.212 0 197.752 88.54 197.752 197.752 0 189.323-124.707 349.511-296.461 402.913z m-244.738 67.5a167.64 167.64 0 0 0-49.42 119.327 28.125 28.125 0 0 0 28.124 28.125 27.835 27.835 0 0 0 16.84-5.599 56.25 56.25 0 0 1 78.758 11.189 56.25 56.25 0 0 0 90.052 0 56.25 56.25 0 0 1 78.758-11.189 27.826 27.826 0 0 0 16.84 5.599 28.125 28.125 0 0 0 28.124-28.125 168.748 168.748 0 0 0-154.211-168.124q-7.242 0.255-14.537 0.255-7.295 0-14.528-0.255a167.474 167.474 0 0 0-104.791 48.805z m443.5-570.467A140.624 140.624 0 0 0 736.12-9.75H287.88A141.503 141.503 0 0 0 146.38 131.75199999999995a365.235 365.235 0 0 0 350.003 365.287c5.16-0.351 10.362-0.544 15.618-0.544s10.45 0.193 15.618 0.544a365.252 365.252 0 0 0 350.003-365.287 140.624 140.624 0 0 0-41.448-100.054zM616.264 375.76a28.125 28.125 0 0 1-39.78 0L512 311.26700000000005l-64.485 64.485a28.125 28.125 0 0 1-39.77-39.78l64.476-64.475h-44.595a28.125 28.125 0 0 1 0-56.25h56.25v-56.25h-56.25a28.125 28.125 0 0 1 0-56.249h56.25v-28.124a28.125 28.125 0 0 1 56.249 0v28.124h56.25a28.125 28.125 0 0 1 0 56.25h-56.25v56.25h56.25a28.125 28.125 0 0 1 0 56.249h-44.596l64.485 64.484a28.125 28.125 0 0 1 0 39.78z"  horiz-adv-x="1024" />

    
    <glyph glyph-name="duihao" unicode="&#58802;" d="M597.504 832C348.16 832 149.504 633.856 149.504 384s198.656-448 448-448 448 198.656 448 448-204.8 448-448 448z m-82.944-697.856l-29.696-30.72-30.72 30.208-206.336 202.24c-8.192 8.192-8.704 21.504-0.512 30.208 8.192 8.192 21.504 8.704 30.208 0.512L483.84 163.84l433.664 448c8.192 8.704 21.504 8.704 30.208 0.512 8.704-8.192 8.704-21.504 0.512-30.208l-433.664-448z"  horiz-adv-x="1195" />

    
    <glyph glyph-name="duankouup4" unicode="&#58635;" d="M1024 819.2L1024-51.200000000000045c-10.666667-17.066667-17.066667-38.4-29.866667-53.333333C981.333333-115.20000000000005 962.133333-119.46666700000003 947.2-128l-868.266667 0C10.666667-102.39999999999998 0-85.33333300000004 0-12.799999999999955l0 821.333333c0 49.06666701 36.266667 87.466667 87.466667 87.466667L936.533333 896c34.133333 0 59.733333-14.933333 76.8-44.8 4.266667-10.666667 6.4-21.333333 10.666667-32z m-55.466667-437.333333l0 416c0 32-10.666667 42.666667-42.666666 42.666666l-827.733334 0c-32 0-42.666667-10.666667-42.666666-42.666666L55.466667-29.866667000000007c0-32 10.666667-42.666667 42.666666-42.666666L925.866667-72.53333299999997c32 0 42.666667 10.666667 42.666666 42.666666l0 411.733334zM347.733333 631.4666669999999L347.733333 725.333333c0 23.466667 8.533333 32 32 32L644.266667 757.333333c23.466667 0 32-8.533333 32-32l-1e-8-91.733333L853.333333 633.59999999c27.733333 0 36.266667-8.533333 36.266667-38.39999999l0-145.066667L889.6 51.20000001000005c0-27.733333-8.533333-36.266667-38.4-36.26666701L170.66666701 14.933332999999948c-29.866667 0-38.4 8.533333-38.40000001 38.4l0 539.733334c0 32 8.533333 38.4 38.4 38.4L347.733333 631.4666669999999z m192-563.2l0 74.66666601c0 21.333333 10.666667 34.133333 27.733334 34.13333399s25.6-12.8 25.6-34.133334L593.06666699 68.26666699999998l44.80000001 0c10.666667 0 14.933333 4.266667 14.933333 14.933333l1e-8 64c0 19.2 10.666667 29.866667 27.73333299 29.866667 14.933333 0 25.6-10.666667 25.59999999-29.866667l1e-8-64c0-10.666667 4.266667-14.933333 14.933334-14.93333301L834.133333 68.26666699999998l0 509.866666L661.333333 578.133333c-32 0-40.533333 8.533333-40.533333 40.533334l0 85.333333-219.73333299 0-1e-8-87.466667c0-27.733333-10.666667-38.4-38.4-38.4l-174.933334 0L187.733333 70.39999999999998l128 0 0 81.066667c0 17.066667 12.8 27.733333 27.733334 25.6 14.933333 0 23.466667-10.666667 25.6-25.6l0-21.333334 0-59.733333 59.73333301 0-1e-8 76.8c0 6.4 0 14.933333 4.266667 19.2 8.533333 6.4 19.2 10.666667 29.866666 10.666667 12.8-2.133333 19.2-14.933333 19.2-27.733334L482.133333 70.39999999999998c21.333333-2.133333 38.4-2.133333 57.6-2.133333z"  horiz-adv-x="1024" />

    
    <glyph glyph-name="bangding" unicode="&#58901;" d="M0-128V777.551345C0 842.973567 53.026433 896 118.448655 896H1188.678363L0-128zM328.817778 410.947368c-7.904561 0-14.701287 3.383392-20.330293 9.04234l-154.79766 160.426666C142.401871 591.704327 134.736842 617.54386 149.707602 632.51462c11.976608 11.976608 34.492632 12.575439 44.672749 1.287485l135.575205-141.20421L654.192281 795.336608C665.480234 805.516725 691.649123 800.187135 700.631579 785.216374c11.108304-18.50386 3.263626-35.330994-8.054269-45.511111L348.010292 418.85193c-5.629006-5.658947-12.425731-7.904561-19.192514-7.904562z"  horiz-adv-x="1188" />

    
    <glyph glyph-name="daijinquan" unicode="&#58947;" d="M862.3 730.5H161.7c-54.3 0-98.2-44-98.2-98.2v-123.8h0.9c68.8 0 124.5-55.7 124.5-124.5S133.1 259.5 64.4 259.5h-0.9v-123.8c0-54.3 44-98.2 98.2-98.2h700.6c54.3 0 98.2 44 98.2 98.2V259.5h-0.9c-68.8 0-124.5 55.7-124.5 124.5s55.7 124.5 124.5 124.5h0.9V632.2c0 54.3-44 98.3-98.2 98.3z m38.2-171.7c-72.8-24.7-125.4-93.7-125.4-174.8s52.6-150.1 125.4-174.8v-73.4c0-21.1-17.2-38.2-38.2-38.2H161.7c-21.1 0-38.2 17.2-38.2 38.2v73.4c72.8 24.7 125.4 93.7 125.4 174.8s-52.6 150.1-125.4 174.8v73.4c0 21.1 17.2 38.2 38.2 38.2h700.6c21.1 0 38.2-17.2 38.2-38.2v-73.4zM682.2 466.8H561.9l91.3 91.3c11.7 11.7 11.7 30.7 0 42.4s-30.7 11.7-42.4 0l-110-110-110 110c-11.7 11.7-30.7 11.7-42.4 0s-11.7-30.7 0-42.4l91.3-91.3h-79.9c-16.6 0-30-13.4-30-30s13.4-30 30-30h113.8v-39H342.5c-16.6 0-30-13.4-30-30s13.4-30 30-30h131.2v-119.2c0-16.6 13.4-30 30-30s30 13.4 30 30V307.8h131.2c16.6 0 30 13.4 30 30s-13.4 30-30 30H533.7v39h148.5c16.6 0 30 13.4 30 30s-13.4 30-30 30z"  horiz-adv-x="1024" />

    
    <glyph glyph-name="yonghufankui" unicode="&#58929;" d="M896 247.466667V0c0-21.333333-17.066667-42.666667-42.666667-42.666667H170.666667c-12.8 0-21.333333 4.266667-29.866667 12.8-8.533333 8.533333-12.8 17.066667-12.8 29.866667V512h256c25.6 0 42.666667 17.066667 42.666667 42.666667V810.666667h426.666666c25.6 0 42.666667-21.333333 42.666667-42.666667v-162.133333l-384-384V42.666667h179.2l204.8 204.8z m34.133333 273.066666l59.733334-59.733333-332.8-332.8H597.333333v59.733333l332.8 332.8zM128 597.333333l213.333333 213.333334v-213.333334H128z"  horiz-adv-x="1024" />

    
    <glyph glyph-name="kahao" unicode="&#59110;" d="M960 571.733333h-896V674.133333A51.2 51.2 0 0 0 115.2 725.333333h793.6a51.2 51.2 0 0 0 51.2-51.2v-102.4z m-896-76.8h896V85.333333a51.2 51.2 0 0 0-51.2-51.2H115.2A51.2 51.2 0 0 0 64 85.333333V494.933333z m405.034667-323.925333a24.32 24.32 0 0 1 24.32-24.32h357.290666a24.362667 24.362667 0 0 1 0 48.682667h-357.248a24.32 24.32 0 0 1-24.362666-24.32z m0 97.450667a24.32 24.32 0 0 1 24.32-24.362667h357.290666a24.362667 24.362667 0 0 1 0 48.725333h-357.248a24.32 24.32 0 0 1-24.362666-24.362666z"  horiz-adv-x="1024" />

    
    <glyph glyph-name="tixianjilu" unicode="&#58886;" d="M993.883923-128H87.706533c-48.39709 0.132088-87.574429 39.811362-87.706517 88.789639V264.671586H1081.59044v-303.881947c-0.158506-48.978278-39.335844-88.657551-87.706517-88.789639z m-556.566534 252.869511H134.201554v-82.924926h303.115835v82.924926z m316.456736 446.484289a107.044219 107.044219 0 0 1 31.067128 74.524122h208.884165c48.423508-0.105671 87.653681-39.758526 87.865022-88.763222v-144.398741H596.932682l156.841443 158.637841z m-213.190238-131.956039l-171.846654 173.880811a48.50276 48.50276 0 0 0 0 68.025385 46.495021 46.495021 0 0 0 66.783758 0l56.322377-57.722511V847.867086c0 26.444043 22.666323 48.132914 48.793354 48.132914 26.153449 0 48.819772-21.609618 48.819772-48.132914v-224.28564l56.322378 57.722511a46.019504 46.019504 0 0 0 33.312626 14.107013c12.627625 0.052835 24.726897-5.019349 33.603219-14.107013a48.529178 48.529178 0 0 0-0.132088-68.025385l-171.978742-173.880811z m-540.583871-26.681802v144.398741c0.132088 48.95186 39.309427 88.631134 87.706517 88.763222h209.042671a107.757494 107.757494 0 0 1 30.618028-74.524122l156.86786-158.637841H0.000016z"  horiz-adv-x="1081" />

    
    <glyph glyph-name="shebei" unicode="&#58931;" d="M680.91963872 444.85635069a50.49872974 50.49872974 0 0 0-50.49872974 50.50011058 119.93569138 119.93569138 0 1 1-239.87138274 0 50.49872974 50.49872974 0 1 0-100.99884032 0 220.9345317 220.9345317 0 1 0 441.86906338 0 50.49872974 50.49872974 0 0 0-50.50011058-50.50011058zM835.4481544 444.85635069a50.49872974 50.49872974 0 0 0-50.49872976 50.50011058 274.7169009 274.7169009 0 1 1-549.18110793 0 50.49872974 50.49872974 0 1 0-100.99884032 0 375.71436037 375.71436037 0 1 0 751.17740774 0 50.49872974 50.49872974 0 0 0-50.49872973-50.50011058zM953.86906337 292.22031039H562.49872974V466.18830317a50.49872974 50.49872974 0 1 1-100.99745948 0v-173.96937362H70.13093663a63.12375739 63.12375739 0 0 1-63.12375739-63.12375738v-283.04889442A63.12375739 63.12375739 0 0 1 70.13093663-117.07886048h883.73812674a63.12375739 63.12375739 0 0 1 63.12375739 63.12513823V229.09655302A63.12375739 63.12375739 0 0 1 953.86906337 292.22031039zM162.79778341 36.94564828a50.49872974 50.49872974 0 1 0 50.49872975 50.50011058 50.49872974 50.49872974 0 0 0-50.49872975-50.50011058z m153.01235245 0a50.49872974 50.49872974 0 1 0 50.49872974 50.50011058 50.49872974 50.49872974 0 0 0-50.49872974-50.50011058z"  horiz-adv-x="1024" />

    
    <glyph glyph-name="wode" unicode="&#58976;" d="M512 893.72444445h283.19288889v-283.1928889c0-156.44444445-126.74844445-283.19288889-283.19288889-283.19288888S228.80711111 454.08711111 228.80711111 610.53155555 355.55555555 893.72444445 512 893.72444445zM257.13777778 270.67733333h509.72444444c109.45422222 0 198.20088889-88.74666667 198.20088889-198.20088888v-28.33066667c0-93.86666667-76.11733333-169.87022222-169.87022222-169.87022223H228.80711111c-93.86666667 0-169.87022222 76.11733333-169.87022222 169.87022223v28.33066667c-0.11377778 109.45422222 88.63288889 198.20088889 198.20088889 198.20088888z"  horiz-adv-x="1024" />

    
    <glyph glyph-name="dianji" unicode="&#59180;" d="M843.63752 502.671943c-22.204152 0-37.09327-7.401384-51.933045-14.802768-14.802768 37.105606-44.519326 66.785156-89.038652 66.785156-22.204152 0-37.105606-7.401384-51.933045-14.802768-14.802768 37.105606-44.519326 66.785156-89.038651 66.785156-22.204152 0-37.105606-7.401384-51.933046-14.802768V695.613692c0 51.933045-44.519326 96.452371-96.452371 96.452371s-96.464707-44.519326-96.464706-96.452371v-385.834155l-59.359101 59.3591c-37.09327 37.09327-103.878426 29.67955-140.971697 0-29.67955-29.67955-51.933045-96.452371-7.401384-148.397752l274.492667-274.542009c7.401384 0 14.802768-7.401384 22.204152-7.401384 51.933045-44.519326 111.304482-66.772821 230.010348-66.772821 282.017407-0.024671 304.22156 148.323738 304.22156 333.876439v200.330798c0 51.945381-37.105606 96.464707-96.464707 96.464706z m44.519326-296.795504c0-155.811472 0-281.955729-252.276179-281.955729-103.878426 0-170.651247 22.204152-222.596628 74.198876L153.581805 257.834156c-22.204152 22.204152-14.802768 51.933045 0 66.785156s51.933045 22.204152 74.198876 0l89.038651-81.624932 59.359101-59.359101v497.126302c0 22.204152 22.204152 44.519326 44.519326 44.519326s44.519326-22.204152 44.519325-44.519326v-319.048999c0-14.802768 14.802768-22.204152 29.679551-22.204152 7.401384 0 14.802768 7.401384 14.802768 22.204152V495.270559c0 22.204152 22.204152 44.519326 44.519326 44.519326 0 0 44.519326 0 44.519325-44.519326v-178.077303c0-14.802768 14.802768-22.204152 29.679551-22.204152s29.67955 14.802768 29.67955 29.67955v118.668859c0 22.204152 14.802768 44.519326 44.519326 44.519326 0 0 44.519326 0 44.519325-44.519326v-155.823807c0-14.802768 14.802768-22.204152 29.679551-22.204153s22.204152 14.802768 22.204152 22.204153V398.818188c0 22.204152 22.204152 44.519326 44.519326 44.519325 0 0 44.519326 0 44.519326-44.519325z m-608.430784 341.327165v89.050987c-7.401384 14.802768-14.802768 37.09327-14.802768 59.359101 0 81.612596 66.785156 148.397752 148.397752 148.397752s148.397752-66.785156 148.397752-148.397752v-29.67955c14.802768 0 37.105606-7.401384 44.519326-22.204153 7.401384 14.802768 7.401384 37.09327 7.401384 51.933046a200.336965 200.336965 0 0 1-400.673931 0c0-59.359101 29.67955-111.304482 66.785156-148.397752z m0 0"  horiz-adv-x="1024" />

    
    <glyph glyph-name="FT1300" unicode="&#58917;" d="M501.059368 895.730526C224.768 895.730526 0 670.962526 0 394.671158 0 118.35284200000001 224.741053-106.44210499999997 501.059368-106.44210499999997c276.291368 0 501.059368 224.768 501.059369 501.086316C1002.118737 670.962526 777.377684 895.730526 501.059368 895.730526z m0-930.546526c-236.813474 0-429.487158 192.646737-429.487157 429.487158 0 236.813474 192.673684 429.460211 429.487157 429.46021 236.840421 0 429.487158-192.673684 429.487158-429.46021 0-236.840421-192.673684-429.487158-429.487158-429.487158zM509.520842 680.96c-19.779368 0-35.813053-16.006737-35.813053-35.759158v-143.171368a35.786105 35.786105 0 0 1 71.599158 0V645.200842c0 19.752421-16.033684 35.786105-35.786105 35.786105z m-191.461053-295.612632a35.813053 35.813053 0 0 1-63.488-33.064421l80.896-153.114947a35.786105 35.786105 0 1 1 63.488 33.064421l-80.896 153.114947z m423.585685 15.225264a35.813053 35.813053 0 0 1-48.289685-15.225264l-80.869052-153.114947a35.786105 35.786105 0 1 1 63.488-33.064421l80.869052 153.114947a35.813053 35.813053 0 0 1-15.198315 48.289685z"  horiz-adv-x="1024" />

    
    <glyph glyph-name="dingdan1" unicode="&#58892;" d="M825.7 750H691.3c-6.3 27.5-31.7 48.7-61.4 48.7h-66.6c-8.5 21.2-28.6 34.9-51.8 34.9-23.3 0-43.4-13.8-51.8-34.9H392c-29.6 0-55-21.2-61.4-48.7H196.2c-34.9 0-61.4-28.6-61.4-63.5v-683.4c0-34.9 27.5-63.5 61.4-63.5h628.4c34.9 0 64.5 28.6 64.5 63.5V686.5c1.1 34.9-28.5 63.5-63.4 63.5z m-313.2-30.7c28.6 0 50.8-23.3 50.8-50.8 0-28.6-23.3-50.8-50.8-50.8-28.6 0-50.8 23.3-50.8 50.8s22.3 50.8 50.8 50.8z m193.6-525.8c0-12.7-10.6-23.3-23.3-23.3H342.2c-12.7 0-23.3 10.6-23.3 23.3v21.2c0 12.7 10.6 23.3 23.3 23.3h340.6c12.7 0 23.3-10.6 23.3-23.3v-21.2z m0 214.8c0-12.7-10.6-23.3-23.3-23.3H342.2c-12.7 0-23.3 10.6-23.3 23.3v21.2c0 12.7 10.6 23.3 23.3 23.3h340.6c12.7 0 23.3-10.6 23.3-23.3v-21.2z"  horiz-adv-x="1024" />

    
    <glyph glyph-name="dingdan2" unicode="&#58926;" d="M626.57 697.6H396.09c-0.6 0-1.1 0.49-1.1 1.1V796.23c0 0.6 0.49 1.1 1.1 1.1h230.49c0.6 0 1.1-0.49 1.1-1.1v-97.53c-0.01-0.6-0.5-1.1-1.11-1.1zM748.35 733.13h-90.58c-1.34-32.76-28.36-59.2-61.45-59.2h-170c-33.07 0-60.1 26.44-61.45 59.2h-90.56c-50.08 0-91.04-40.97-91.04-91.04v-515.96c0-50.07 40.96-91.04 91.04-91.04h474.04c50.08 0 91.04 40.97 91.04 91.04V642.09c0 50.08-40.96 91.04-91.04 91.04zM682.1 223.21H340.56c-12.58 0-22.76 10.18-22.76 22.76s10.18 22.76 22.76 22.76H682.1c12.58 0 22.76-10.18 22.76-22.76s-10.18-22.76-22.76-22.76z m0 138.75H340.56c-12.58 0-22.76 10.18-22.76 22.76s10.18 22.76 22.76 22.76H682.1c12.58 0 22.76-10.18 22.76-22.76s-10.18-22.76-22.76-22.76z m0 138.74H340.56c-12.58 0-22.76 10.18-22.76 22.76 0 12.58 10.18 22.76 22.76 22.76H682.1c12.58 0 22.76-10.18 22.76-22.76 0-12.58-10.18-22.76-22.76-22.76z"  horiz-adv-x="1024" />

    
    <glyph glyph-name="tixian" unicode="&#59024;" d="M979.000954 121.699212h-268.784321a182.261368 182.261368 0 0 0-182.318254 182.403582v156.833518a182.403582 182.403582 0 0 0 182.318254 182.403582h268.784321a87.689107 87.689107 0 0 0 28.727213-3.185592V688.137281a207.632333 207.632333 0 0 1-207.91676 208.002089H207.917045A206.835935 206.835935 0 0 1 0.000284 691.351316v-611.207013a207.632333 207.632333 0 0 1 207.916761-208.030532h591.894362a206.864377 206.864377 0 0 1 207.91676 204.788054v48.011422c-9.386119 0-19.056666-3.214035-28.727213-3.214035z m0 0l-268.784321 387.220079a45.508456 45.508456 0 0 1-44.655173-44.797387V307.174615a45.792884 45.792884 0 0 1 44.655173-44.797387h268.784321A45.906655 45.906655 0 0 1 1023.940555 307.174615v156.805075a45.821327 45.821327 0 0 1-44.939601 44.797387h-268.784321z m0 0"  horiz-adv-x="1024" />

    
    <glyph glyph-name="shijian" unicode="&#58675;" d="M511.956206-127.901576a511.924509 511.924509 0 1 0 361.984918 149.93959 508.578082 508.578082 0 0 0-361.984918-149.93959z m0 931.999454a420.074945 420.074945 0 1 1 297.04456-123.030385 417.319064 417.319064 0 0 1-297.04456 122.951645zM512.507382 317.488101a46.023206 46.023206 0 0 0-46.023206 46.023206V619.729465a46.023206 46.023206 0 1 0 92.046412 0v-256.237843a46.023206 46.023206 0 0 0-46.023206-46.003521zM376.248771 171.623277a46.023206 46.023206 0 0 0-32.539077 78.562282l136.455461 136.475145a46.023206 46.023206 0 1 0 65.078152-65.078152l-136.45546-136.475145a45.846042 45.846042 0 0 0-32.539076-13.48413z"  horiz-adv-x="1024" />

    
    <glyph glyph-name="shijian1" unicode="&#59272;" d="M512 810.667A426.667 426.667 0 1 0 85.333 384 426.667 426.667 0 0 0 512 810.667M512 896a512 512 0 1 1 512-512A512 512 0 0 1 512 896zM725.333 256h-256a42.667 42.667 0 0 0-42.666 42.667V640A42.667 42.667 0 0 0 512 640v-298.667h213.333a42.667 42.667 0 0 0 0-85.333z"  horiz-adv-x="1024" />

    
    <glyph glyph-name="zhangdanmingxi" unicode="&#58888;" d="M497.979077 308.302769l-113.165128 111.32718c-18.116923 17.801846-18.116923 44.504615 0 62.332718 18.090667 17.801846 45.239795 17.801846 63.356718 0l95.048205-93.499077 95.074461 93.47282c18.116923 17.828103 45.266051 17.828103 63.382975 0 18.116923-17.801846 18.116923-44.504615 0-62.332718l-113.165129-111.300923v-35.603692h90.532103c27.175385 0 45.266051-17.801846 45.266051-44.530872 0-26.702769-18.116923-44.530872-45.266051-44.530872h-90.532103v-89.00923c0-26.729026-18.116923-44.530872-45.266051-44.530872-27.175385 0-45.266051 17.801846-45.266051 44.504615V183.66359h-90.558359c-27.149128 0-45.266051 17.828103-45.266051 44.530872 0 26.729026 18.116923 44.530872 45.266051 44.530871h90.558359v35.603693zM271.622564 806.990769c-27.175385 0-45.266051 17.801846-45.266051 44.504616C226.330256 878.198154 244.447179 896 271.622564 896h905.399795C1253.953641 896 1312.820513 838.130872 1312.820513 762.433641v-667.831795c0-26.702769-18.116923-44.504615-45.266051-44.504615s-45.266051 17.801846-45.266052 44.504615V762.433641c0 26.702769-18.116923 44.530872-45.266051 44.530872H271.622564zM135.798154 717.929026h860.16c76.931282 0 135.798154-57.895385 135.798154-133.566359v-578.796308c0-75.697231-58.866872-133.566359-135.824411-133.566359H135.798154C58.866872-128 0-70.130872 0 5.566359V584.362667c0 75.670974 58.840615 133.566359 135.798154 133.566359z m0-89.061744c-27.149128 0-45.266051-17.801846-45.266051-44.504615v-578.796308c0-26.702769 18.116923-44.530872 45.266051-44.530872h860.16c27.149128 0 45.239795 17.828103 45.239795 44.530872V584.362667c0 26.702769-18.116923 44.504615-45.266052 44.504615H135.798154z"  horiz-adv-x="1312" />

    
    <glyph glyph-name="cikaguanli" unicode="&#59244;" d="M904.727 54.051H117.85c-31.305 0-55.494 24.19-55.494 55.494V433.972h899.288v-324.427c0-29.881-25.612-55.494-56.917-55.494z m-83.952 247.59H708.364v-109.566h112.41V301.64zM62.355 658.793c0 29.882 25.613 55.495 55.495 55.495h786.877c31.305 0 55.494-24.19 55.494-55.495v-145.138H62.356V658.794z"  horiz-adv-x="1024" />

    
    <glyph glyph-name="sousuo" unicode="&#58907;" d="M420.5 120.1c-196.6-0.2-356.1 159.1-356.2 355.7C64.1 672.4 223.4 831.9 420 832.1c196.6 0.1 356.1-159.1 356.2-355.8 0.1-94.6-37.5-185.3-104.4-252.1-66.6-66.6-157-104.1-251.3-104.1z m0 591.1c-130.1-0.8-235-107-234.2-237.1s107-235 237.1-234.2c130.1 0.8 235 107 234.2 237.1-0.4 62.1-25.2 121.5-69.2 165.3-44.4 44.6-104.9 69.5-167.9 68.9z m479.7-775.3c-16 0.2-31.3 6.6-42.5 17.9L586.8 224.2c-23 23.7-23 61.4 0 85.1 23.3 23.5 61.2 23.7 84.7 0.4l0.4-0.4 270.9-270.4c23.5-23.7 23.3-62-0.4-85.5-11.2-11.1-26.4-17.4-42.2-17.5z"  horiz-adv-x="1024" />

    
    <glyph glyph-name="weixin1" unicode="&#58909;" d="M1234.215385 241.230769c0 173.784615-173.902769 315.313231-369.112616 315.313231-206.769231 0-369.585231-141.646769-369.585231-315.313231 0-174.020923 162.816-315.332923 369.585231-315.332923 43.323077 0 87.020308 10.968615 130.461539 21.799385l119.138461-65.240616-32.728615 108.563693c87.256615 65.476923 152.241231 152.241231 152.241231 250.210461z m-483.446154 48.246154a49.230769 49.230769 0 1 0-0.019693 98.441846 49.230769 49.230769 0 0 0 0.019693-98.441846z m239.143384 0.374154a49.230769 49.230769 0 1 0-0.039384 98.422154 49.230769 49.230769 0 0 0 0.039384-98.422154zM440.989538 882.589538C202.102154 882.589538 6.4 719.753846 6.4 512.984615c0-119.394462 65.102769-217.344 173.902769-293.415384L136.861538 88.871385l151.867077 76.169846c54.409846-10.712615 97.969231-21.779692 152.260923-21.779693 13.666462 0 27.195077 0.610462 40.605539 1.713231a323.426462 323.426462 0 0 0-13.410462 91.076923c0 189.912615 163.072 344.024615 369.48677 344.024616 14.139077 0 28.061538-0.984615 41.846153-2.599385C841.846154 752.502154 654.611692 882.589538 440.969846 882.589538zM294.990769 584.369231a59.076923 59.076923 0 1 0 0.039385 118.193231 59.076923 59.076923 0 0 0-0.039385-118.193231z m303.517539 0a59.076923 59.076923 0 1 0 0.019692 118.193231 59.076923 59.076923 0 0 0-0.019692-118.193231z"  horiz-adv-x="1240" />

    
    <glyph glyph-name="dizhi1" unicode="&#59115;" d="M512 384c38.4 0 73.6 19.2 92.8 54.4 19.2 32 19.2 73.6 0 108.8-19.2 32-54.4 54.4-92.8 54.4-57.6 0-105.6-48-105.6-108.8S454.4 384 512 384z m0-80c-102.4 0-185.6 83.2-185.6 188.8s83.2 188.8 185.6 188.8 185.6-83.2 185.6-188.8-83.2-188.8-185.6-188.8z m342.4 179.2c0 182.4-153.6 332.8-342.4 332.8S169.6 665.6 169.6 483.2c0-121.6 112-294.4 342.4-505.6 230.4 214.4 342.4 384 342.4 505.6zM512-128C230.4 118.4 89.6 323.2 89.6 483.2 89.6 710.4 278.4 896 512 896s422.4-185.6 422.4-412.8c0-160-140.8-364.8-422.4-611.2z"  horiz-adv-x="1024" />

    
    <glyph glyph-name="zhanghu" unicode="&#59112;" d="M275.8 547c0-130.1 105.5-235.7 235.7-235.7 130.1 0 235.7 105.5 235.7 235.7 0 130.1-105.5 235.7-235.7 235.7-130.2-0.1-235.7-105.6-235.7-235.7zM739.1 312.7c-18.6 14.6-45.3 13.3-62.6-4-42.6-42.6-101.2-69.2-166.4-69.2s-123.8 26.6-166.4 69.2c-17.3 17.3-43.9 20-62.6 4C209.2 251.4 156 172.9 138.7 65c-6.7-43.9 24-79.9 69.2-79.9h608.4c43.9 0 75.9 35.9 69.2 79.9-18.6 107.9-71.8 186.4-146.4 247.7z"  horiz-adv-x="1024" />

    


  </font>
</defs>
</svg>
